<?xml version="1.0" encoding="utf-8"?>
<svg version="1.1" xmlns="http://www.w3.org/2000/svg" xmlns:xlink="http://www.w3.org/1999/xlink" x="0px" y="0px"
	 viewBox="0 0 1334 456" enable-background="new 0 0 1334 456" xml:space="preserve">
<g id="Logo">
	<g>
		<path fill="#003264" d="M889.9,246.9c-3.2-1.6-5.3-0.5-6.9-0.5c-4.8,16.5-9.6,25.6-16.5,30.9c-1.6-0.5-1.6-1.6-1.1-2.7
			c0.5-1.1,0.5-1.6,1.1-2.7c5.3-11.7,8-24,8-36.8c0-10.7,0-20.8,0-31.4c0-2.1-0.5-4.3,0.5-5.9c2.1-0.5,3.7,0.5,5.9,1.6
			c1.6,0.5,3.7,1.6,5.9,1.6c13.9,0,27.2,0,39.4,0c3.2-0.5,4.3-2.7,6.4-3.2c3.2,0.5,6.4,2.7,8.5,5.3c0,2.1-2.1,2.7-3.2,5.3
			c0,2.7,0,6.9,0,10.7c-2.1,2.1-4.3,2.7-6.9,2.7c-2.1-1.6-3.7-3.7-6.9-2.7c-0.5,1.6,1.6,1.1,1.6,2.1c0,2.7-3.7,4.3-1.6,7.5
			c1.1,1.1,2.1,1.1,3.7,0.5c2.1-1.1,2.7-3.7,5.3-4.8c3.7,1.1,6.9,3.2,8.5,7.5c-5.9,2.1-11.2,0-17.1,1.6c-1.6,2.7-1.1,5.3-0.5,8.5
			c3.2,1.1,6.4,0.5,9.1,0.5c2.7-1.6,3.2-4.3,5.3-5.3c4.8,1.6,6.9,3.2,9.6,8c-4.3,3.2-9.6,0-13.9,2.1c1.1,2.7,4.3,3.2,5.3,6.4
			c-5.9,1.1-11.2,2.7-16.5,4.8c0,1.6,1.1,2.1,2.1,2.7c5.9,3.2,12.8,4.8,19.7,5.9c2.1,0.5,4.3,0,5.3,2.1c0,1.6-1.1,2.1-2.1,2.1
			c-4.3,0.5-8,2.1-11.2,5.9c-13.9-6.4-25.6-14.9-30.9-29.8c-1.1,0-2.1-0.5-2.7-0.5c-1.1,0-2.1,0-2.7,0.5c-1.6,4.8-1.6,13.3,0,18.1
			c4.3,0.5,8-3.7,12.3-2.7c0,0.5,0,0.5,0,1.1c-0.5,0.5-0.5,1.1-1.1,1.6c-5.9,4.8-11.7,9.1-17.1,14.4c-3.2-1.6-4.8-4.3-5.9-6.9
			C891.5,263.4,889.4,254.9,889.9,246.9z M884.6,213.3c5.3,1.1,38.4,1.1,43.7,0c1.1-2.7,1.1-5.3,0-8c-1.1,0-2.1-0.5-3.2-0.5
			c-12.3,0-25,0-37.3,0c-1.1,0-2.7,0-3.2,1.6C884.1,208.5,883.5,210.6,884.6,213.3z M894.2,228.2c0.5-3.7,1.1-6.4-0.5-9.6
			c-3.2-1.1-6.9-1.1-10.1,0c-0.5,3.2-1.1,6.4,0.5,9.6C887.3,229.3,890.5,228.8,894.2,228.2z M903.8,228.2c3.7,1.1,7.5,1.1,10.7,0
			c1.1-4.8,1.1-4.8,0-9.6c-3.7-1.1-7.5-0.5-11.7-0.5c1.1,1.6,2.7,1.6,2.7,2.7C903.8,224.5,903.8,224.5,903.8,228.2z M883.5,233.6
			c-0.5,2.7-1.1,5.3,0,8c3.7,1.1,6.9,0.5,10.7,0c0.5-3.2,1.1-5.9,0-8.5C889.4,232.5,889.4,232.5,883.5,233.6z M903.8,241.5
			c3.7,0.5,6.9,0.5,10.7,0c0.5-3.2,1.1-5.9,0-8.5c-3.7-0.5-6.9-1.1-10.7,0.5C902.7,236.2,902.7,238.9,903.8,241.5z M910.2,246.3
			c2.1,5.3,2.7,5.9,6.9,9.1c3.7-2.7,8-4.3,10.7-9.1C921.9,245.8,916,245.3,910.2,246.3z"/>
		<path fill="#003264" d="M588.4,197.3c1.1,0,1.6,0,2.1,0.5c4.8,2.7,10.1,2.7,16,2.7c11.2,0,22.4,0,33.6,0c2.1,0,4.3,0,6.4,0
			c1.6-1.6,2.7-2.7,4.3-4.3c3.7,0.5,6.4,2.7,9.1,4.8c0.5,2.1-1.6,2.7-2.7,5.3c0,21.8,0,44.8,0,67.1c-2.7,2.1-4.8,3.2-7.5,2.7
			c-2.1-2.1,0-5.3-2.1-7.5c-4.8-1.1-44.8-1.1-50.1,0c-1.1,1.6-0.5,3.7-2.1,5.9c-1.6,1.1-3.7,2.1-6.4,2.1c-0.5-0.5-0.5-0.5-0.5-0.5
			l-0.5-0.5c0-25,0-50.1,0-75.1C587.8,199.5,588.4,198.9,588.4,197.3z M648,223.4c-5.3-0.5-9.6-0.5-14.4,0c-1.1,2.1-0.5,4.3-0.5,6.4
			c0,8,0,16,0,24c0,5.3-2.7,8-8.5,8.5c-1.6-1.6-2.1-4.3-4.8-5.3c-2.1-1.1-5.3-1.1-6.4-3.7c3.7-1.6,8,1.1,11.7-1.1
			c0.5-6.4,0.5-12.8-0.5-19.7c-7.5,9.6-17.1,17.6-27.7,23.4c0,2.7-1.1,5.3,1.1,8c1.1,0,1.6,0.5,2.7,0.5c14.9,0,29.8,0,44.2,0
			c1.1,0,2.7,0,3.7-2.1C648.6,250.1,648.6,237.3,648,223.4z M648,204.8c-5.3-1.1-45.3-1.1-50.6,0c-1.1,4.8-1.1,41.6,0,46.9
			c8-4.8,19.7-19.7,22.4-28.2c-6.4-0.5-12.8,0-18.6-0.5c-1.1-1.1-1.6-1.6-0.5-3.2c3.7,0,7.5,0,11.7,0c4.3,0,8.5,0.5,12.3-0.5
			c1.6-4.3-0.5-8.5,1.6-12.8c3.2,0,6.4,0.5,9.6,3.2c-2.1,3.2-3.2,6.4-1.6,9.6c3.2,0,3.7-3.7,6.4-4.3c3.2,0.5,4.3,4.3,7.5,4.8
			C648.6,214.4,649.1,209.6,648,204.8z"/>
		<path fill="#003264" d="M739.7,129.1c4.3-1.1,6.9,1.6,9.6,4.3c-4.3,4.3-1.6,9.6-2.7,14.4c-1.6,2.7-4.3,2.1-5.9,2.7
			c-2.1-0.5-2.1-2.7-3.2-3.2c-3.2-1.1-6.9-0.5-10.1-0.5c-1.6,0-2.7,0-4.3,0.5c-1.1,1.6-1.1,3.7,0,5.9c6.9,1.1,13.9,0,19.2,0.5
			c2.1,0,3.2-1.1,3.7-1.6c0.5-0.5,1.1-1.1,2.1-1.6c3.7,1.1,6.4,3.2,8,6.4c-0.5,2.1-2.7,2.1-3.2,3.7c-0.5,3.2-1.1,5.9-1.6,9.1
			c-1.6,6.9-6.4,9.6-14.4,9.6c-0.5-4.8-5.9-6.4-9.1-9.6c1.1-2.7,2.7-1.6,4.3-1.6c2.7,0.5,5.9,1.6,9.1,0.5c2.1-3.2,3.2-6.9,2.1-11.2
			c-6.9-0.5-13.9-0.5-20.8,0c-1.1,9.1,0,18.1-0.5,26.6c-3.2,2.7-3.2,2.7-8,3.2c-1.6-3.7-0.5-8-0.5-12.3c0-4.3,0-8-0.5-13.3
			c-9.1,11.2-20.2,17.1-32.5,21.3c-1.1,0.5-2.7,1.6-3.7,0c0.5-2.1,2.7-2.7,4.3-3.7c6.9-4.3,13.3-8.5,19.2-14.4
			c2.1-2.1,3.7-3.7,5.3-6.9c-3.2-1.1-6.4-0.5-9.6-0.5c-1.1,1.1-2.7,2.1-3.7,2.7c-3.2,0-5.3-1.6-7.5-3.7c4.3-4.8,3.7-11.2,5.3-16.5
			c4.3-0.5,6.9,3.2,10.7,3.2s7.5,0,11.2,0c1.6-2.7,1.1-5.3,0.5-8c-3.7-1.6-8-0.5-11.7-0.5s-7.5,0-11.7,0c-0.5-0.5-1.1-1.1-1.1-2.1
			c0.5-0.5,0.5-1.1,1.1-1.1c5.9,0,11.2,0,17.1,0c2.7,0,5.3,0,7.5,0c6.9-9.6,12.3-19.2,15.5-29.3c3.7,0.5,6.9,2.1,9.6,4.8
			c-2.7,1.6-5.3,2.7-5.3,6.4c3.7,0.5,7.5,0,10.7,0c2.7-1.1,3.7-4.3,6.4-5.3c3.7,1.6,6.4,3.7,8.5,8.5c-5.9,2.1-12.3,0.5-18.1,1.6
			c0.5,2.1,2.7,3.2,2.7,4.8C743.4,125.9,741.3,127.5,739.7,129.1c-1.1,0-2.1-0.5-3.2-1.6c-1.1-2.7-1.6-6.4-3.7-9.1
			c-1.6-0.5-2.7-0.5-3.7,0c-1.6,2.1-3.7,4.3-5.9,6.4s-4.8,3.7-5.9,6.9c6.9,0,13.3,0,19.2,0C737.6,131.3,739.2,130.7,739.7,129.1z
			 M737.6,143c0.5-3.2,1.1-5.3-0.5-8c-4.8-0.5-10.1-0.5-14.9,0c-1.1,2.7-1.1,5.3,0,8C727.4,143.5,732.2,143.5,737.6,143z
			 M697.6,147.8c-0.5,2.1-1.6,4.3-1.1,6.4c5.3,0,10.7,0.5,16-0.5c0.5-2.1,1.1-4.3-0.5-6.4C707.2,146.7,702.4,146.7,697.6,147.8z"/>
		<path fill="#003264" d="M940,155.8c-2.7,2.1-4.8,2.7-7.5,2.7c-2.1-1.1-1.1-3.2-2.7-4.8c-5.9-1.1-11.7-0.5-17.6-0.5
			c-1.6,1.6-1.6,3.2-1.6,4.8c0,6.4,0,12.3,0,18.6c0,2.1,0.5,4.3-0.5,5.9c-3.7,2.7-3.7,2.7-8,2.7c-1.6-1.6-1.1-3.7-1.1-5.9
			c0-6.4,0-13.3,0-19.7c0-2.1,0.5-4.3-1.1-5.9c-4.3-1.1-11.2-1.6-18.1-0.5c-0.5,1.1-1.1,2.7-2.1,3.7c-1.6,1.6-3.2,2.1-8,2.7
			c-1.6-4.3-0.5-8.5-0.5-12.8c0-4.3,0-8.5,0-12.8c0-4.3-0.5-8.5,0.5-13.3c4.3-0.5,6.9,2.7,11.2,3.7c4.8,0,10.7,0.5,16.5-0.5
			c2.1-6.9-0.5-14.4,1.6-21.8c4.3,0.5,8.5,1.6,11.7,4.3c0.5,2.1-2.1,2.7-2.7,4.8c0,3.7-0.5,8,0,12.8c3.2,1.6,6.4,1.1,9.6,1.1
			s5.9,0.5,9.1-0.5c1.1-1.6,2.1-3.2,3.2-4.3c4.8,1.1,7.5,2.1,10.7,5.9c0,2.1-2.7,2.7-4.3,4.8C940,138.7,940,147.2,940,155.8z
			 M930.4,149.4c0.5-7.5,0.5-13.9,0-20.8c-6.9-0.5-12.8-0.5-19.7,0c0,6.9-0.5,13.3,0.5,20.2C917.6,149.9,923.5,149.4,930.4,149.4z
			 M881.9,129.1c-0.5,6.9-0.5,13.3,0,19.7c6.4,1.1,14.4,1.1,19.2-0.5c0.5-6.4,0.5-12.8-0.5-19.7
			C894.2,128.1,888.3,128.1,881.9,129.1z"/>
		<path fill="#003264" d="M1029,126.5c1.6-1.1,2.7-2.1,3.7-3.2c3.2-0.5,8,3.2,9.6,8c-2.1,2.7-5.9,1.6-8.5,3.7
			c-2.1,2.1-4.8,3.2-6.9,5.3c-1.1,1.6,1.6,3.2,0,4.8c-6.9,0-12.8,3.2-18.6,6.9c-1.1,1.6-1.1,2.7,0,4.3c0.5,0,1.1,0.5,1.6,0.5
			c5.9,0,11.7,0,17.1,0c3.7-1.6,3.7-5.9,7.5-6.9c4.3,2.1,7.5,5.3,9.6,9.1c-1.1,2.1-2.7,1.6-4.3,1.6c-8,0-16.5,0-24.5,0
			c-2.1,0-4.3-0.5-6.4,0.5c-1.6,1.6-1.1,3.2-1.1,5.3c0,3.2,0,5.9,0,9.1c0,4.3-2.1,6.9-5.9,9.1c-2.1,1.1-3.7,2.1-6.4,1.6
			c-2.1-1.6-2.1-4.8-4.8-6.4c-2.1-1.1-5.3-1.6-7.5-4.3c5.3-1.6,10.7,1.6,15.5-1.1c1.1-4.3,1.1-8,0.5-12.8
			c-5.9-0.5-11.2-0.5-17.1-0.5c-5.9,0-11.2,0-16.5,0c-1.1-0.5-1.6-1.6-1.6-3.2c5.9,0,11.7,0,17.6,0s11.7,0.5,17.1-0.5
			c2.1-2.7,0.5-5.3,1.6-7.5c1.6-1.1,3.7,0.5,5.9,0c2.1-1.1,4.3-3.2,6.4-6.4c-4.3-0.5-8-0.5-11.7-0.5s-7.5,0-10.7,0
			c-3.7,0-7.5,0-11.2,0c-0.5-1.1-1.6-1.6-1.1-2.7c0,0,0-0.5,0.5-0.5c12.3-1.1,24.5,0,36.8-0.5c1.6-1.1,3.2-1.6,4.3-2.7
			c2.7,0,3.7,2.1,5.9,2.1c2.7-1.6,3.7-4.3,5.3-7.5c-6.4-1.6-12.3-0.5-18.1-0.5c-5.9,0-12.3,0-18.1,0c-5.9,0-11.7-0.5-17.6,0.5
			c-1.6,1.6-1.6,3.2-2.1,5.3c-0.5,1.6-1.1,3.7-2.1,4.8c-1.1,1.6-3.2,2.7-5.3,2.7c-2.1,0-3.7-0.5-4.8-3.2c0-2.1,1.1-3.7,2.1-4.8
			c3.2-3.2,5.3-6.9,6.4-11.2c0-1.1,0.5-2.1,1.6-2.1c2.1,0.5,1.1,3.2,3.2,4.3c11.7,0,24,0,35.7,0c4.3-6.9,6.4-14.4,9.6-21.8
			c4.3,1.1,7.5,3.2,10.1,6.4c-5.9,4.3-9.6,9.6-14.4,15.5C1021.5,127,1025.3,126.5,1029,126.5z"/>
		<path fill="#003264" d="M1250.1,140.3c-2.1-1.6-3.7-2.7-4.8-3.7c-6.9-5.9-6.9-16,0-21.8c6.9-6.4,20.8-7.5,28.8-2.1
			c8.5,5.9,9.1,15.5,0.5,21.8c-1.6,1.1-3.2,1.6-4.3,3.7c1.6,1.1,3.7,2.1,5.3,3.2c12.3,7.5,9.6,21.8,0,27.7
			c-10.1,5.9-20.2,5.9-30.4,0.5c-1.6-1.1-2.7-2.1-4.3-3.2c-5.3-5.9-5.3-13.9,0-19.7C1243.7,144,1246.9,142.4,1250.1,140.3z
			 M1257.6,142.4c-5.3,2.7-8.5,4.8-10.7,7.5c-2.7,3.7-2.7,9.1,0,12.3c4.3,5.3,10.1,6.9,16.5,5.9s11.2-4.3,12.3-11.7
			C1273.6,147.2,1264.5,145.6,1257.6,142.4z M1263.4,135.5c2.7-1.1,4.8-3.2,6.4-5.3c4.3-4.8,3.2-10.7-2.1-13.9
			c-4.8-3.2-11.2-3.2-16,0.5c-5.3,4.3-5.9,10.1,0,13.9C1254.9,132.9,1259.2,135,1263.4,135.5z"/>
		<path fill="#003264" d="M1115.9,140.8c-0.5-6.4,0.5-12.8,3.2-18.6c4.8-10.1,14.4-14.9,25.6-12.8c6.4,1.6,10.7,5.3,13.9,10.7
			c4.8,8.5,5.3,18.1,4.3,27.2c-0.5,5.3-2.1,10.1-4.8,14.9c-4.3,7.5-11.2,11.2-19.2,10.7c-9.1,0-14.9-4.8-18.6-12.8
			c-2.1-3.7-3.2-8-3.7-12.8C1115.9,145.6,1115.9,143.5,1115.9,140.8z M1153.7,140.3c0-1.6,0-4.3-0.5-7.5c-0.5-4.8-1.6-9.6-4.3-13.3
			c-5.3-7.5-13.9-6.9-19.2,0c-1.6,2.7-2.7,5.9-3.7,9.1c-1.6,6.9-1.6,13.9-1.1,20.8c0.5,4.8,1.6,9.6,4.8,13.3
			c5.3,6.9,13.9,6.9,19.2,0c1.6-2.1,2.7-4.8,3.2-7.5C1153.7,150.4,1153.7,146.2,1153.7,140.3z"/>
		<path fill="#003264" d="M524.4,142.4c2.7,2.1,5.9,2.7,9.6,2.7c6.9,0,14.4,0,20.2,0c2.7-1.1,3.2-3.2,5.9-3.7
			c3.2,1.1,6.4,2.7,8.5,5.3c0,2.1-2.1,2.7-3.2,4.8c0,9.6,0,19.7,0,29.8c-2.1,2.1-4.3,3.2-6.9,3.2c-2.1-1.6-1.6-3.7-2.1-4.8
			c-1.6-1.1-20.8-1.6-27.2,0c-1.1,1.1-0.5,3.2-1.6,4.3c-1.1,1.6-3.2,2.1-6.9,2.1c0-14.4,0-28.8,0-42.6
			C522.3,141.9,523.4,142.4,524.4,142.4L524.4,142.4z M556.4,163.8c-3.2-0.5-6.4-1.1-9.6,0.5c-0.5,3.2-1.1,6.4,0,10.1
			c3.2,0.5,6.4,1.1,9.6-0.5C556.9,170.7,557.5,167.5,556.4,163.8z M537.7,174.4c0.5-3.7,1.1-6.9,0-10.1c-3.2-1.1-5.9-1.1-9.1,0
			c-1.1,3.2-1.1,6.4,0,10.1C531.9,174.9,534.5,174.9,537.7,174.4z M556.4,159c1.1-2.7,0.5-4.3,0.5-6.4c0-1.1,0-2.1-1.1-3.2
			c-2.7-0.5-5.9-1.1-9.1,0.5c0,2.7-0.5,5.9,0.5,9.1C550.5,159.5,553.2,159.5,556.4,159z M528.7,149.4c-0.5,3.2-0.5,6.4,0,9.1
			c4.8,1.1,4.8,1.1,9.1,0c0.5-3.2,1.1-5.9-0.5-9.6C534.5,148.8,531.9,148.3,528.7,149.4z"/>
		<path fill="#003264" d="M546.3,227.7c-0.5,12.8-0.5,25,0,37.3c2.7,1.1,5.3,0.5,7.5,0.5c3.2-1.6,4.3-4.8,7.5-6.4
			c3.7,1.6,6.9,4.8,8.5,8.5c-0.5,1.1-1.6,1.6-2.7,1.6c-17.6,0-35.2,0-52.7,0c-1.1-1.1-2.1-2.1-1.1-3.7c7.5-0.5,15.5,0.5,22.9-0.5
			c1.6-4.8,1.6-29.8,0.5-37.3c-5.3-1.6-10.7,0-15.5-1.1c-1.1-1.1-1.6-1.6-1.1-3.2c5.3-1.1,10.7,0,15.5-1.1c1.6-1.1,1.1-3.2,1.1-4.8
			c0-6.4,0-13.3,0-19.7c0-2.1,0-3.7,0.5-6.4c4.3,0.5,8.5,1.1,11.7,4.3c0.5,3.2-2.7,3.2-3.7,5.9c0,4.8,0,10.1,0,16
			c0,1.6,0,2.7,0.5,4.3c2.1,1.6,4.8,1.1,6.9,0.5c2.7-1.6,3.2-4.3,6.4-5.9c4.3,1.6,6.9,4.3,9.1,9.1c-3.7,1.6-7.5,0.5-10.7,1.1
			C554.3,228.2,550.5,227.7,546.3,227.7z"/>
		<path fill="#003264" d="M1069.5,165.4c8.5-0.5,16.5,1.1,23.4-1.1c2.7-2.1,2.1-4.3,3.7-5.9c1.1-1.1,2.1-1.1,3.2,0
			c0,6.4-1.1,12.8-3.7,16c-3.7-2.7-8.5-1.6-12.8-2.1c-7.5,0-14.9,0-22.4,0c-2.1,0-4.3,0.5-5.9-1.1c-0.5-1.1-0.5-2.1,0-3.2
			c1.1-2.1,3.7-3.2,5.9-4.8c6.4-4.8,13.3-10.1,19.2-15.5c2.1-1.6,3.7-3.7,5.3-5.9c2.1-2.7,3.7-5.9,4.8-9.1c2.1-8-1.6-15.5-9.1-17.6
			c-8-2.1-16.5,1.6-18.6,9.6c-1.1,2.7-1.1,5.3-1.6,8c-1.1,1.1-2.1,1.1-4.3,0c-1.6-4.8-0.5-10.1,2.7-14.4c4.8-8,12.8-10.1,21.8-10.1
			c0.5,0,1.1,0,1.6,0.5c16.5,2.7,22.9,19.7,12.8,33c-2.7,3.7-5.9,6.4-9.6,9.1c-4.3,3.2-9.1,6.4-13.3,10.1
			C1071.1,162.2,1069.5,162.7,1069.5,165.4z"/>
		<path fill="#003264" d="M796.2,273.5c-2.1,1.6-4.3,3.2-6.4,3.2c-2.1-1.1-1.6-2.7-1.6-4.3c0-8,0-16,0-24c0-2.1,0.5-4.3-0.5-5.9
			c-1.6-0.5-2.1,0.5-3.2,1.1c-3.7,2.7-6.9,5.3-10.7,8c-1.1,0.5-2.1,2.1-3.7,1.1c-1.1-1.6,0.5-2.7,1.6-3.2c5.9-5.3,11.7-11.2,16-17.6
			c0.5-1.6,0.5-3.7,1.1-5.3c1.1-0.5,2.1-1.1,3.2-1.6c1.6-2.1,3.2-4.8,3.7-7.5c-2.7-1.1-5.3-0.5-7.5-0.5c-2.7,0-5.3,0-8,0
			s-5.3,0-7.5,0c-1.1-1.1-1.6-1.6-1.1-2.7c0.5,0,0.5-0.5,1.1-0.5c4.3,0,8,0,12.3,0c2.1,0,4.3,0.5,5.9-0.5c-0.5-3.2-1.6-5.9-2.7-9.1
			c-1.1-2.7-3.7-4.8-4.3-8c3.7-0.5,5.9,1.6,8.5,2.7c2.7,1.6,5.3,3.2,6.4,6.4c0.5,3.2-1.6,5.3-3.2,7.5c1.1,1.6,2.1,0.5,3.2,0
			c1.1-1.1,1.6-2.7,3.7-2.7c2.7,1.1,5.3,2.7,7.5,5.9c-5.3,4.3-7.5,10.1-11.7,15.5c4.8,3.7,12.3,4.8,13.9,11.2
			c-1.6,5.3-1.6,5.3-5.3,7.5c-2.1-0.5-2.7-2.1-3.2-3.7c-1.1-3.2-2.7-6.4-5.9-10.1c-0.5,4.3-0.5,6.9-0.5,10.1c0,3.2,0,6.4,0,9.6
			s0,5.9,0,9.1C796.7,266.6,797.2,269.8,796.2,273.5z"/>
		<path fill="#003264" d="M1007.2,306c7.5-0.5,14.9-0.5,21.8,0c2.1,0,4.3,1.1,5.9,2.7c5.3,3.7,5.9,10.7,1.1,14.9
			c-1.1,1.1-2.1,1.6-3.2,2.1c1.6,2.1,3.7,3.2,4.3,5.9c0.5,2.1,1.1,4.8,1.1,6.9c0,2.1,1.6,4.8,0.5,6.9c-3.7,1.6-7.5,0.5-10.7,0.5
			c-2.7-2.1-2.1-4.8-2.1-7.5c0-2.1,0-4.8-0.5-6.9c0-1.6-1.1-2.7-2.1-3.2c-1.1-0.5-2.1-0.5-3.7,0c-1.6,5.9,0.5,11.7-1.1,17.6
			c-3.7,1.1-6.9,1.1-10.7,0c-1.6-4.3-0.5-8.5-0.5-12.8c0-4.3,0-9.1,0-13.3C1006.6,315.6,1006.1,311.3,1007.2,306z M1019.4,310.8
			c0,3.7-0.5,8,0.5,11.7c2.7,1.1,4.8,0.5,6.4-1.6c1.6-2.1,1.6-4.8,0-7.5C1024.7,310.8,1022.6,309.7,1019.4,310.8z"/>
		<path fill="#003264" d="M690.7,259.1c-3.2,1.6-4.8,3.7-6.4,6.4c-1.6,2.1-2.1,5.3-4.8,6.9c-3.2-1.6-5.3-4.3-6.9-7.5
			c3.7-4.3,9.1-6.4,13.3-9.1c1.1-4.8,1.1-20.2,0-26.1c-3.2-1.1-6.9,0-10.1-0.5c-1.6-1.1-1.6-2.1-1.1-3.2c3.7-1.1,7.5,0.5,11.2-0.5
			c2.1-1.1,2.1-3.7,4.8-4.3c3.2,1.1,6.4,2.7,8,5.9c0,2.1-2.1,2.7-2.7,4.8c0,8,0,16.5,0,24.5c4.3,6.4,10.7,8.5,18.1,9.1
			c8.5,0.5,17.1,0.5,25.6,0.5c5.3,0,10.7-0.5,15.5-0.5c1.6,0,2.7-0.5,4.3,1.1c-3.2,2.7-8.5,3.7-8.5,8c-2.1,1.6-4.3,1.1-5.9,1.1
			c-9.6,0-19.2-1.1-28.8-1.6c-7.5-0.5-13.9-3.2-19.2-9.1C695.5,262.3,693.9,260.2,690.7,259.1z"/>
		<path fill="#003264" d="M1083.4,346c-0.5-13.3-0.5-26.1,0-38.4c1.1-1.6,2.7-1.6,3.7-1.6c4.8,0,9.6,0,14.4,0
			c9.6,0.5,14.9,5.3,16,14.9c0.5,4.3,0.5,8,0,11.7c-1.1,7.5-5.9,11.7-12.8,13.3C1099.9,347,1089.7,347,1083.4,346z M1096.1,310.3
			c-1.1,4.8-0.5,10.1-0.5,15.5c0,5.3-0.5,10.7,0.5,16c5.9,0.5,6.9-0.5,8-4.8c1.6-7.5,1.6-14.9,0-21.8
			C1103.1,310.8,1101.5,310.3,1096.1,310.3z"/>
		<path fill="#003264" d="M829.2,265.5c4.8,1.1,9.6,1.1,14.4,0c4.8-4.8,2.1-11.7,5.3-17.1c2.7,1.1,1.6,3.2,2.1,4.8
			c0,4.8,1.1,9.1,4.3,12.8c-1.1,4.8-3.7,7.5-8.5,8c-7.5,1.1-14.9,1.1-22.9-0.5c-1.1,0-1.6-1.1-2.7-1.1c-2.7-2.7-2.1-5.9-2.1-9.1
			c0-18.6,0-36.8,0-55.4c0-3.2,0-6.9,0-10.1c0-1.6-0.5-2.7,1.1-4.3c4.3,0,8,1.6,11.2,3.7c0.5,1.6-0.5,2.1-1.1,2.7
			c-0.5,0.5-1.1,1.1-1.6,1.6c0,20.8,0,41,0,61.8C828.1,263.9,828.7,265,829.2,265.5z"/>
		<path fill="#003264" d="M527.6,325.7c0-2.7,0-5.3,1.1-8.5c2.1-8,7.5-12.3,16-12.8c8.5,0,14.4,4.3,16.5,12.8
			c1.6,5.9,1.6,11.7-0.5,17.6c-2.1,7.5-7.5,11.2-15.5,11.7c-8.5,0-13.9-3.2-16.5-11.2C527.6,332.7,527.6,329.5,527.6,325.7z
			 M544.1,309.7c-2.1,1.1-2.1,3.2-2.7,5.3c-1.6,7.5-1.1,14.9,0,22.9c0,1.1,0.5,2.1,0.5,2.7c0.5,1.1,1.1,2.7,3.2,2.1
			c1.6-1.1,2.1-2.7,2.7-3.7c1.6-8.5,1.6-16.5,0-25C547.3,311.9,546.8,310.3,544.1,309.7z"/>
		<path fill="#003264" d="M740.2,326.3c0,3.7-0.5,6.9-1.6,10.7c-1.6,5.3-5.3,8.5-10.7,9.6c-4.3,1.1-8.5,1.1-12.3,0
			c-5.3-1.6-9.1-5.3-10.7-10.7c-2.1-6.4-2.1-12.8-0.5-18.6c1.6-6.4,5.9-10.1,12.3-11.7c1.6,0,2.7-0.5,4.3-0.5
			c10.1-0.5,16.5,4.8,18.1,14.4C740.2,321.5,740.2,323.6,740.2,326.3z M722.1,309.2c-3.2,0.5-4.3,2.7-4.8,4.8
			c-1.1,8-1.1,16.5,0,24.5c0,1.6,1.1,3.7,2.7,4.3c1.1,0.5,2.1,0.5,3.2-0.5c1.1-0.5,2.1-2.1,2.1-3.2c1.6-8.5,1.6-17.6,0-26.1
			C725.8,311.3,724.8,309.7,722.1,309.2z"/>
		<path fill="#003264" d="M514.3,210.1c2.7,1.1,5.3,3.2,7.5,5.9c-6.9,3.7-8.5,10.1-11.7,14.9c0.5,2.1,2.7,2.7,3.7,3.2
			c2.1,1.1,4.8,2.1,6.4,4.3c2.1,2.1,2.1,4.3,1.6,6.9c-0.5,1.6-1.6,2.7-2.7,3.2c-1.1,0.5-2.1,1.1-3.7,0.5c-2.7-2.7-2.1-8-6.4-11.2
			c0,12.8,0,25,0,36.8c-2.1,2.7-4.8,3.7-7.5,3.7c-2.1-1.6-1.6-3.2-1.6-5.3c0-8,0-16,0-24c0-1.6,0.5-3.2-1.1-4.8
			c-4.8,2.1-8,7.5-14.9,9.1c5.3-7.5,11.7-12.3,15.5-19.7c0-1.6,0-3.7,0.5-5.3c1.1-1.6,2.7-0.5,4.3-2.7c1.1-1.6,2.7-3.7,3.2-6.9
			c-6.9-1.1-13.9,0-20.2-0.5c-1.1-1.1-1.6-1.6-0.5-3.2c7.5,0,14.9,0,22.4,0C511.1,212.8,511.6,210.1,514.3,210.1z"/>
		<path fill="#003264" d="M498.8,150.4c-5.3,3.7-8.5,8.5-14.9,10.7c1.6-4.8,5.3-6.9,7.5-10.1c2.7-3.2,4.8-6.4,7.5-9.1
			c0-2.7,0.5-4.8,0.5-6.4c1.1-1.6,2.7-1.1,4.3-2.1c1.6-2.1,3.2-4.3,4.3-7.5c-5.9-1.6-11.7-0.5-17.6-0.5c-1.1-1.1-1.6-1.6-1.1-3.2
			c6.4-0.5,12.8,0,20.2-0.5c0.5-1.1,1.6-2.7,2.1-3.7c5.3,1.6,5.9,2.1,9.1,6.4c-1.1,1.1-2.7,1.6-3.7,3.2c-3.2,3.7-5.9,8-8.5,12.3
			c1.6,2.7,4.8,3.2,6.9,4.8c3.2,3.2,3.7,7.5,1.1,10.7c-1.1,1.1-2.1,1.6-4.3,1.1c-2.7-2.7-1.1-7.5-5.3-10.7c0,12.8,0,25.6,0,36.8
			c-2.1,3.2-4.8,3.7-7.5,4.3c-1.6-3.7-0.5-8-1.1-11.2c0-4.3,0-8,0-12.3C499.4,158.4,499.4,154.7,498.8,150.4z"/>
		<path fill="#003264" d="M944.8,331.1c-1.1,4.8,0.5,9.6-1.1,14.4c-3.7,1.6-7.5,1.1-11.2,0c-0.5-6.4-0.5-13.3-0.5-19.7
			c0-6.4,0-13.3,0-19.2c1.6-1.6,3.2-1.6,4.8-1.6c4.8,0,9.1,0,13.9,0c1.6,0,3.7,0,5.3,0.5c5.9,1.6,9.1,5.3,9.1,11.2
			s-2.7,9.6-8.5,11.7c-2.1,0.5-4.3,0.5-6.4,1.1C948.6,330.5,947,330,944.8,331.1z M945.4,325.2c2.7,1.1,4.8,0.5,5.9-2.1
			c1.6-3.2,1.6-6.4,0.5-9.6c-1.1-2.7-3.7-3.7-6.4-2.7C944.3,315.6,944.3,319.9,945.4,325.2z"/>
		<path fill="#003264" d="M633.7,323.1c1.6,1.1,2.7,1.6,3.7,2.7c4.8,5.9,4.3,13.3-1.6,18.1c-5.9,4.8-17.6,4.8-24,0
			c-5.9-4.3-5.9-10.1-1.1-15.5c0.5-0.5,1.1-1.1,1.1-1.1c0-1.6-1.6-2.7-2.1-3.7c-3.7-5.9-1.6-13.3,4.8-16.5
			c5.3-2.7,11.2-2.7,17.1-0.5c5.3,2.1,8,8.5,4.3,13.3C635.3,320.9,634.7,321.5,633.7,323.1z M631.5,336.9c-3.2-5.3-9.1-5.9-14.4-6.9
			c-3.7,3.2-4.3,5.9-2.7,9.1c2.1,3.2,5.3,4.8,9.1,4.8C627.3,343.3,629.9,341.7,631.5,336.9z M617.7,315.6c3.7,2.7,7.5,3.7,11.7,4.3
			c3.7-5.9,1.6-10.1-4.3-10.7c-1.6,0-3.7,0-5.3,0.5c-0.5,0-1.1,0.5-1.6,0.5C617.1,311.9,617.1,313.5,617.7,315.6z"/>
		<path fill="#003264" d="M505.2,335.9c4.3,1.1,9.1-0.5,13.9,1.1c1.1,3.2,1.1,5.9,0,9.6c-4.8,1.1-9.6,0.5-14.9,0.5
			c-4.8,0-9.6,0.5-13.9-0.5c-1.6-2.1-1.1-3.7-1.1-6.4c2.7-3.2,5.3-5.9,8.5-9.1c3.2-3.2,6.4-6.4,8.5-10.1c2.1-3.7,2.7-6.9-0.5-10.7
			c-6.4-1.6-9.1,0-9.6,6.4c0,2.1,0.5,3.7,0,5.9c-2.1,0.5-3.7,0-5.3-1.1c-2.1-3.2-1.6-6.9,0-10.1c1.6-3.2,4.3-5.3,7.5-5.9
			c4.3-1.1,8.5-1.1,12.3,0c9.1,2.7,11.7,10.7,5.9,18.1c-2.1,3.2-5.3,5.3-8.5,8C507.4,333.2,505.8,333.7,505.2,335.9z"/>
		<path fill="#003264" d="M668.3,333.2c1.1-0.5,1.6-0.5,2.7-1.1c0.5,0,1.6,0,2.7,0c0,0.5,0.5,1.1,0.5,1.6c0,0.5,0,0.5,0,1.1
			c0,3.2,0.5,6.4,3.7,7.5c3.2,1.1,6.9,1.6,9.6-1.6c1.6-3.2,0-5.3-2.1-6.9c-1.6-1.1-3.7-2.1-5.3-2.7c-2.1-1.1-4.8-2.1-6.9-3.7
			c-4.3-3.7-5.3-8.5-4.3-13.3c1.1-4.8,4.8-7.5,9.1-8.5c3.2-1.1,6.4-1.1,9.6,0c5.9,1.6,8,4.3,8.5,11.2c-0.5,1.1-1.6,1.6-2.7,1.6
			c-0.5,0-1.6,0-2.7-0.5c-1.1-1.1,0-3.7-1.6-5.3c-2.1-2.7-5.3-3.2-8.5-2.7c-2.1,0.5-4.3,1.1-4.3,4.3c0.5,2.7,2.7,3.7,4.8,4.8
			c1.6,1.1,3.7,1.6,5.3,2.1c3.2,1.6,5.9,3.2,8.5,5.9c5.9,6.4,3.7,16-4.3,19.7c-5.3,2.1-11.2,2.1-17.1,0
			C669.4,343.9,667.8,340.1,668.3,333.2z"/>
		<path fill="#003264" d="M1056.2,306c3.2-0.5,6.4-0.5,10.1,0c4.3,13.3,7.5,26.1,11.2,39.4c-4.3,2.1-8,1.1-11.2,1.1
			c-2.7-2.7-2.1-5.9-3.7-8c-4.3-1.1-5.3-1.1-10.7,0c-2.1,2.1-1.6,5.3-3.7,7.5c-1.1,0.5-2.7,1.1-3.7,0
			C1043.9,344.4,1053,312.9,1056.2,306z M1057.2,320.4c-1.1,4.3-4.3,8-3.2,12.3c3.7,0.5,3.7,0.5,6.4-0.5
			C1060.4,327.9,1059.4,324.1,1057.2,320.4z"/>
		<path fill="#003264" d="M1001.3,346c-4.3,1.6-8,1.1-11.2,0.5c-2.7-2.1-2.1-5.9-4.3-8c-3.2-0.5-6.4-0.5-9.6,0
			c-2.7,2.1-2.1,5.3-3.7,7.5c-1.1,1.1-2.7,1.1-3.7,0.5l-0.5-0.5v-0.5c3.2-12.8,7.5-25.6,11.2-38.4c3.7-1.6,6.9-1.1,10.7-0.5
			C994.4,318.8,997,332.1,1001.3,346z M981.1,318.3c-1.6,5.3-3.2,9.6-3.7,14.4c2.7,1.1,4.8,1.1,7.5,0
			C984.2,327.9,982.7,323.6,981.1,318.3z"/>
		<path fill="#003264" d="M656,184.5c-2.7,2.1-4.8,3.2-6.9,3.2c-1.1-0.5-1.6-1.6-1.6-2.1c0-27.2,0-53.8,0-81c4.3-0.5,8,0.5,10.7,2.7
			c0.5,2.1-2.1,2.7-2.7,4.3C656,135.5,656,160,656,184.5z"/>
		<path fill="#003264" d="M1126.5,346c-1.1-4.3-1.1-32.5,0-38.9c4.3-1.6,19.2-1.6,25.6-0.5c1.1,1.1,1.1,2.1,0,3.2
			c-3.7,1.6-8.5-0.5-12.8,1.6c-1.1,3.2-0.5,6.4,0,9.6c3.7,1.6,7.5,0,10.7,1.6c1.1,1.1,1.1,2.1,0.5,3.7c-3.2,1.6-6.9,0-10.7,1.6
			c-1.1,4.3-0.5,9.1,0,13.9c5.3,2.1,10.7,0,15.5,1.1c1.1,1.1,1.1,2.1,0.5,3.2C1149.4,347,1131.3,347,1126.5,346z"/>
		<path fill="#003264" d="M808.4,306.6c6.9-1.1,21.3-1.1,26.1,0c0.5,1.1,0.5,1.6,0,3.2c-3.7,2.1-8.5,0-12.8,1.6
			c-1.6,2.7-0.5,5.9-1.1,9.1c3.7,2.7,8,0,11.2,2.1c0.5,1.1,0.5,2.1,0.5,2.7c-1.6,1.6-3.2,1.1-4.8,1.1c-1.6,0-3.7,0-5.3,0
			c-1.6,4.8-1.1,9.6-0.5,14.4c5.3,1.6,10.7-0.5,15.5,1.1c1.1,1.1,1.1,2.1,0.5,3.2c-2.7,1.6-5.9,0.5-9.1,1.1c-3.2,0-5.9,0-9.1,0
			s-6.4,0.5-10.1-0.5c-1.1-6.4-0.5-13.3-0.5-19.7C807.9,319.9,808.4,313.5,808.4,306.6z"/>
		<path fill="#003264" d="M778,317.7c-1.1,0.5-1.6,1.1-2.1,1.6c-0.5,0.5-1.6,0.5-2.1,0.5c0,0-0.5-0.5-0.5-1.1
			c-0.5-1.6-0.5-3.7-1.1-5.3c-0.5-2.7-2.7-3.7-5.3-4.3c-2.7-0.5-4.3,1.1-5.3,3.2c-1.1,2.1-1.6,4.3-2.1,6.9c-0.5,4.8-0.5,9.6,0,14.4
			c0,2.1,0.5,3.7,1.6,5.9c2.7,4.8,8.5,5.3,11.7,0.5c1.1-1.6,1.6-3.2,1.6-4.8c0-1.6,0-2.7,0.5-3.7c1.6-1.1,3.2-0.5,4.3,0.5
			c1.6,6.9-0.5,11.7-6.9,14.4c-5.3,2.1-11.2,2.1-16.5,0c-4.3-1.6-6.9-4.8-8-9.1c-2.1-6.4-2.1-12.8,0-18.6
			c3.2-9.1,11.7-13.9,20.8-12.3C774.8,306.6,777.5,309.7,778,317.7z"/>
		<path fill="#003264" d="M580.9,186.1c0.5-2.1,2.1-3.2,3.7-4.3c9.6-6.9,13.3-17.1,14.4-28.2c1.1-13.9,0.5-27.7,0-41.6
			c0-2.1,0-4.3,0-6.4c0-0.5,0.5-0.5,1.1-1.1c3.7,0.5,6.9,1.1,10.7,3.2c-0.5,2.1-2.7,3.2-2.7,5.3s0,4.3,0,5.9c0,10.1,0,20.2-0.5,30.9
			c0,2.7-0.5,5.3-0.5,8c-1.6,15.5-11.7,23.4-24.5,29.3C582.5,186.7,582,186.7,580.9,186.1z"/>
		<path fill="#003264" d="M848.4,311.3c-2.7-1.1-5.9,0-8-1.6c-1.1-1.1-1.1-2.1-0.5-3.2c4.8-1.1,26.6-1.6,31.4,0
			c0.5,1.1,0.5,1.6,0,3.2c-2.1,2.1-5.9,0-9.1,2.1c-0.5,10.7,0,22.4-0.5,33.6c-4.3,2.1-8,1.1-11.7,0.5c-1.6-1.6-1.1-3.7-1.1-5.3
			c0-8,0-15.5,0-23.4C848.9,315.6,849.4,313.5,848.4,311.3z"/>
		<path fill="#003264" d="M1204.3,109.9c1.6,2.7,1.1,5.3,1.6,7.5c0,13.9,0,27.7,0,41.6c0,2.7-0.5,5.9,1.6,8c2.1,1.6,5.3,0,7.5,1.6
			c1.1,1.1,1.1,2.1,0.5,2.7c-0.5,1.1-1.1,1.1-2.1,1.1c-5.3,0.5-22.4,0-26.1-0.5c-0.5-1.6-0.5-1.6,0-3.2c2.7-1.1,5.3,0,8-1.6
			c1.6-1.1,2.1-2.7,2.1-4.8c0-13.9,0-27.7,0-41.6c-3.2-2.1-6.9-0.5-10.1-1.6c-1.1-1.1-1.1-2.1,0-3.7
			C1193.1,114.7,1198.4,111.5,1204.3,109.9z"/>
		<path fill="#003264" d="M901.1,306.6c1.6-0.5,2.7-1.1,3.7,0c0.5,0.5,0.5,1.1,0.5,1.6c-2.1,5.3-3.7,11.2-6.4,16.5
			c-2.1,4.8-3.2,9.6-2.7,14.9c0,2.1,0.5,4.3-1.1,6.4c-3.2,1.1-6.9,1.1-10.7,0c-1.6-2.1-1.1-4.3-1.1-6.4c0.5-5.9-1.1-11.2-3.2-16
			c-2.1-4.3-3.7-9.1-5.9-13.3c-0.5-1.1-1.1-2.1-0.5-3.7c3.2-1.6,6.9-0.5,10.7-0.5c4.3,4.8,4.8,11.7,8.5,17.1
			C897.4,317.2,897.9,311.3,901.1,306.6z"/>
		<path fill="#003264" d="M578.8,317.7c-2.1-0.5-4.3,1.1-6.4,0c-1.1-1.1-1.1-2.7-0.5-4.8c4.3-1.6,9.1-2.7,11.7-6.9
			c2.7-1.1,4.8-1.1,6.4,0c1.1,0.5,1.6,1.6,1.6,2.7c0,11.7,0,23.4,0,34.6c0,0.5-0.5,1.1-0.5,2.1c-3.2,1.6-6.9,1.1-10.1,0.5
			c-1.6-1.6-1.6-3.2-1.6-4.8c0-5.9,0-12.3,0-18.1C579.8,321.5,580.4,319.3,578.8,317.7z"/>
		<path fill="#003264" d="M634.2,112.6c-1.6,1.6-2.7,2.7-3.7,3.7c0,10.1,0,19.7,0,29.8c0,9.6,0,19.7,0,28.8
			c-2.1,2.1-4.3,3.2-6.9,3.2c-1.6-1.1-1.6-2.7-1.6-3.7c1.1-20.2,0-40.5,0.5-60.7c0-1.6-0.5-3.2,1.1-4.8
			C626.7,109.4,629.9,111,634.2,112.6z"/>
		<path fill="#003264" d="M524.4,142.4C526,135,525,127,525,119c4.8,0,8.5,2.7,12.8,2.1c4.3-0.5,8.5,0,12.8,0
			c2.1-0.5,2.7-2.7,4.8-2.7c1.6,0,2.7,1.1,4.3,2.1c1.1,0.5,2.7,1.6,3.2,2.7c0.5,1.6-1.6,2.1-2.1,3.7c0,3.7,0,8,0,11.2
			c-1.6,2.7-3.7,3.2-5.9,3.7c-2.1,0-2.1-2.1-3.2-3.2c-5.3-0.5-11.2,0-17.1,0C531.4,140.8,528.7,143.5,524.4,142.4L524.4,142.4z
			 M551.1,124.9c-5.9,0-11.7-0.5-17.6,0.5c-0.5,3.2-1.1,5.9,0.5,9.1c5.9,0,11.7,0.5,17.6-0.5C552.7,130.7,552.7,128.1,551.1,124.9z"
			/>
		<path fill="#003264" d="M787.1,306.6c4.3-1.1,7.5-1.1,10.7-0.5c1.1,1.1,1.6,2.1,1.6,3.2c0,11.2,0,22.9,0,34.1c0,0.5,0,1.1-0.5,2.1
			c-3.7,1.6-6.9,1.1-11.2,0.5c-1.1-4.3-0.5-8.5-0.5-13.3c0-4.3,0-9.1,0-13.3C786.6,315.6,786,311.3,787.1,306.6z"/>
		<path fill="#003264" d="M742.9,196.3c4.3,0.5,6.9,1.6,10.1,4.3c-3.7,2.7-5.3,6.9-7.5,10.7c-2.7,4.8-5.3,9.1-8.5,13.9
			c-1.1,1.6-2.1,2.7-2.7,4.8c0.5,2.1,2.7,3.2,4.3,4.8c3.2,3.2,6.9,6.9,9.6,10.7c2.1,3.7,2.7,6.9,0.5,10.7c-1.1,2.1-2.7,3.2-4.8,2.1
			c-1.1-0.5-1.6-1.6-1.6-2.1c-2.1-9.6-5.3-18.1-12.3-25.6C734.4,219.2,738.6,208,742.9,196.3z"/>
		<path fill="#003264" d="M727.4,195.7c4.3,1.1,7.5,2.1,10.1,5.9c-3.7,2.7-5.3,6.4-7.5,10.1c-3.7,5.9-6.9,12.3-10.7,18.1
			c0.5,2.1,2.1,3.2,3.2,4.3c2.7,2.7,5.3,5.3,7.5,8.5c2.1,2.7,3.2,5.9,3.2,9.6c0,4.3-2.1,6.4-6.4,8c-1.6-0.5-2.1-2.1-2.1-3.7
			c0-9.6-3.7-17.6-9.1-25c0-0.5-0.5-0.5-0.5-1.6C719.4,218.6,724.8,208,727.4,195.7z"/>
		<path fill="#003264" d="M721.6,199.5c-3.2,2.1-4.3,5.3-5.9,8.5c-3.2,7.5-6.9,14.4-10.7,21.3c0.5,2.7,2.7,4.3,4.3,5.9
			c3.2,4.3,6.4,8,8,13.3c1.6,5.3-1.1,10.1-6.9,11.7c-2.1-1.6-1.6-4.8-2.1-6.9c-0.5-5.9-1.6-11.7-4.3-17.6c-1.1-2.1-2.1-4.3-3.2-6.4
			c3.7-11.2,6.9-22.4,9.1-34.1C714.6,195.2,718.4,196.3,721.6,199.5z"/>
		<path fill="#003264" d="M698.1,113.1c0.5,0,1.6,0.5,2.1,0.5c2.7,0,5.3,0.5,7.5-0.5c2.1-1.1,2.7-3.7,5.3-4.8
			c3.2,1.1,5.9,3.7,7.5,6.9c-0.5,1.6-1.6,1.6-3.2,1.6c-4.3,0-8.5,0-13.3,0c0.5,2.7,4.3,3.2,3.7,5.9c-0.5,4.8-0.5,4.8-4.8,6.4
			c-2.7-1.6-2.1-4.3-3.2-6.4c-1.1-2.1-1.6-4.3-4.3-5.3c-2.1,0.5-2.7,2.1-3.7,3.7c-3.2,5.3-7.5,10.1-12.3,14.4
			c-1.1,1.1-2.1,2.1-4.3,1.6c0.5-4.3,4.3-6.9,5.9-10.7c1.6-4.3,3.7-8,5.3-11.7c1.6-3.7,3.2-8,4.8-11.7c4.3,1.1,7.5,2.1,9.6,4.8
			C701.3,109.9,697.1,109.9,698.1,113.1z"/>
		<path fill="#003264" d="M772.7,176.5c-1.1-1.1-1.6-2.1-0.5-3.7c6.9-0.5,13.9,0,21.3,0s14.9,0,22.4,0c7.5,0,14.4,0,20.8,0
			c3.2-2.1,3.7-5.9,6.9-6.9c3.7,1.1,6.4,4.3,9.6,6.9c1.1,0.5,1.6,1.6,1.1,3.2C848.9,177.1,799.4,177.6,772.7,176.5z"/>
		<path fill="#003264" d="M779.6,120.6c-1.1-1.1-1.6-2.1-1.1-2.7c0.5-0.5,0.5-0.5,1.1-0.5c2.1,0,3.7,0,5.9,0c13.9,0,27.2,0,41,0
			c2.1,0,4.3,0,5.9,0c3.2-1.6,3.7-5.3,6.4-6.9c5.3,2.1,9.1,5.3,11.2,9.1c-0.5,1.6-1.6,1.6-3.2,1.6s-2.7,0-4.3,0
			c-19.7,0-39.4,0-58.6,0C782.3,120.6,780.7,120.6,779.6,120.6z"/>
		<path fill="#003264" d="M785.5,147.2c-1.6-1.1-1.6-1.6-1.6-3.2l0.5-0.5c2.1,0,3.7-0.5,5.9-0.5c10.1,0,19.7,0,29.8,0
			c2.1,0,4.3,0,5.9,0c3.2-1.6,3.7-4.8,5.9-6.4c2.1-0.5,3.2,1.1,4.3,1.6c1.6,1.1,2.7,2.1,4.3,3.2c1.1,1.1,2.7,1.6,2.1,4.3
			c-1.6,1.6-3.7,1.1-5.3,1.1c-13.3,0-27.2,0-40.5,0C793,147.2,788.7,147.2,785.5,147.2z"/>
		<path fill="#003264" d="M553.2,111c3.2-1.6,3.7-4.3,6.4-5.9c3.7,1.6,6.4,4.3,9.1,8c-2.1,2.1-4.3,1.6-6.4,1.6
			c-11.2,0-22.4,0-33.6,0c-3.2,0-6.4,0-9.6,0c-1.1-0.5-2.1-1.6-1.6-3.2c0.5,0,1.1-0.5,1.6-0.5c9.1,0,18.1,0,27.7,0
			C548.9,111,551.1,111,553.2,111z"/>
		<path fill="#003264" d="M582,152c0.5-4.8,4.8-7.5,6.4-11.7c1.6-3.7,1.1-8,2.7-11.7c0.5,0.5,1.1,0.5,1.6,0.5
			c2.1,5.3,3.7,11.2,2.1,17.6c-1.1,3.7-3.2,5.9-6.4,7.5C586.2,154.7,585.7,154.7,582,152z"/>
		<path fill="#003264" d="M994.4,105.1c1.1-1.1,1.6-1.1,2.1-1.1c4.3,2.7,8,5.3,10.7,9.6c2.7,4.3,1.6,8-1.6,11.2
			c-0.5,0.5-1.1,0.5-1.6,1.1c-0.5,0-1.1,0-1.6,0c-2.7-3.2-2.1-7.5-3.2-10.7C997.6,111.5,995.4,108.3,994.4,105.1z"/>
		<path fill="#003264" d="M690.7,213.3c-1.6-3.2-3.2-5.9-4.8-9.1c-1.6-3.2-4.8-4.8-5.9-8c0.5-0.5,1.1-0.5,1.1-0.5
			c4.8,0.5,9.6,2.7,13.3,6.4c3.2,2.7,3.7,6.4,1.6,9.6C694.9,213.3,693.9,214.4,690.7,213.3z"/>
		<path fill="#003264" d="M983.7,125.9c-0.5-0.5-1.6-1.1-1.6-1.6c-2.1-5.9-5.9-11.2-9.1-17.1v-0.5c0.5,0,0.5-0.5,1.1-0.5
			c4.8,1.6,9.1,4.3,12.8,8c2.1,1.6,2.1,4.3,1.6,6.9C988.5,123.8,987.4,125.4,983.7,125.9z"/>
		<path fill="#003264" d="M504.7,211.2c-2.7-2.7-2.1-5.9-3.7-9.1c-1.1-2.7-3.2-4.8-4.8-6.9c0.5-1.1,1.1-2.1,1.6-1.6
			c4.3,1.1,8,3.2,11.7,5.9c2.1,2.1,2.7,4.8,2.1,7.5C510,209.6,508.4,211.7,504.7,211.2z"/>
		<path fill="#003264" d="M614.5,152c-2.1-3.7-1.6-7.5-2.7-10.7c-0.5-3.2-2.1-6.4-3.2-9.1c1.1-1.1,2.1-0.5,2.7,0
			c2.7,2.7,5.9,4.8,8,8C622.5,145.1,620.3,149.4,614.5,152z"/>
		<path fill="#003264" d="M636.8,151c-0.5-3.2-1.1-6.4-2.1-9.6c-1.1-3.2-2.1-6.4-3.2-9.1c1.6-1.1,2.1-0.5,3.2,0
			c2.7,2.1,5.3,4.3,7.5,6.9c2.7,3.2,2.1,8-0.5,11.2C640.6,151,639.5,152,636.8,151z"/>
		<path fill="#003264" d="M510,112.1c-0.5,3.2-1.6,6.4-5.3,7.5c-3.2-2.1-2.7-5.9-4.3-8.5c-1.1-2.7-3.7-4.8-4.3-8
			C502,103,507.4,106.7,510,112.1z"/>
	</g>
</g>
<g id="Text">
	<path fill="#003264" d="M452.3,361.1c-57.6,22.7-114.8,45.1-172.8,68.2c-51.2-20.1-103.1-40.2-154.6-60.6c-1.1-4.5,0-9.1-0.8-13.6
		c-6.1,2.3-11.7,4.2-17.1,6.4c-6.8-2.3-13.6-4.9-20.1-7.6c-1.1-1.5-0.8-3-0.8-4.5c0-11,0-22.4,0-33.3c0-1.5,0-3,0-5.3
		c-5.3,1.5-9.9,3.4-14.8,5.7c-2.7,0.4-5.3,0-7.6-1.1c-4.9-2.3-9.9-4.2-14.8-6.1c-1.1-1.1-0.8-2.3-0.8-3c0-23.5,0-47,0-70.5
		c0-0.8,0-1.5,0.4-2.3c6.4-3.4,13.6-5.3,20.5-8.3c5.7,1.9,11,4.2,16.3,6.1c1.5-3.8,1.1-8.7-0.4-12.1c-11.7-5.3-24.6-9.5-36.8-15.2
		c-0.4-10.2,0-20.5,0-31.1c6.1-3,12.9-4.5,18.6-8c0.8-4.5,0-9.1,0.4-13.6c4.5-3.8,10.6-4.9,16.3-7.6c-2.7-2.3-5.3-2.7-8-3.8
		c-2.7-1.1-5.7-1.5-8.3-3.4c-0.4-4.9-0.4-9.9,0-15.2C144.3,90.9,221.2,61,298.1,30.7c51.5,20.1,102.3,40.2,153.5,60.6
		c1.1,1.9,0.8,3.4,0.8,5.3c0,17.1,0,34.1,0,51.2c0,69,0,138.3,0,207.3C452.3,356.6,452.3,358.8,452.3,361.1z M299.7,61.4
		c-5.7,1.5-166,64.8-170.1,67.1c10.2,4.5,20.8,8.3,31.1,12.5c10.2,4.2,20.5,8,30.7,12.1c10.2,4.2,20.8,8,31.1,12.1
		c56.1-22,111.8-44,167.8-65.9c0,0,0.4,0,0.4-0.4c0,0,0-0.4,0-0.8C360.3,85.6,329.6,73.5,299.7,61.4z M300.4,374
		c1.1-0.4,1.9-0.4,2.7-0.8c16.7-6.4,33-12.9,49.6-19.7c0.8-0.4,1.9-0.8,2.7-2.3c0-13.6,0-27.7,0-42.1c-12.5-5.7-25-10.2-37.1-15.2
		c-6.1,2.3-11.7,4.5-17.4,7.2C300.4,325.5,300.4,349.4,300.4,374z M146.6,227.3c-1.1,2.3-0.8,4.2-0.8,5.7c0,28.4,0,56.8,0,85.6
		c0,3,0,6.1,0,9.1c0,0.8,0,1.9,0.8,2.3c4.5-1.1,32.2-12.1,35.2-14c0-24.2,0-48.9,0-73.1c-0.8-1.1-1.9-1.9-3-2.3
		C168.2,235.7,157.6,231.5,146.6,227.3z M355,187.9c0.4-4.9,0.4-9.5-0.4-14c-0.4-4.5,0.4-9.1-0.8-13.6c-18.2,7.2-36,14.4-53.8,21.2
		c0,9.1,0,17.4,0,25.8c0,0.8,0.4,1.1,1.1,1.5C319,202,336.8,194.8,355,187.9z M355,236.1c-1.1-1.1-1.9-0.8-3-0.8
		c-1.5,0.4-3.4,1.1-4.9,1.9c-7.2,2.7-14,5.7-21.2,8.3c-7.6,3-15.2,6.1-22.7,8.7c-1.1,0.4-2.3,0.8-3.4,2.7c0,3.8-0.4,8,0.4,12.5
		c6.1-0.8,11-4.2,16.3-5.7c6.1,2.3,12.5,4.9,18.6,7.2c6.4,2.3,12.5,5.3,19.3,7.2C355,263.7,355,249.7,355,236.1z M411.8,300.9
		c1.1-2.3,0.8-3.8,0.8-5.7c0-25.4-0.8-51.2-0.4-76.5c0-1.1,0-2.3,0-3.4c0-0.8-0.4-1.5-0.4-1.9c-6.1,1.1-12.5,4.2-15.5,7.2
		c0,0.4,0,0.8,0,1.1c0,17.4,0,34.9,0,52.3c0,2.3,0.4,4.9,0,7.2c-0.4,4.5-0.8,9.1,1.1,13.6C401.6,296.7,406.5,299,411.8,300.9z
		 M129.9,188.3c1.1,0.8,1.1,0.8,1.5,1.1c15.9,6.1,31.8,12.5,47.7,18.6c0.8,0.4,1.5,0.8,2.3,0c0.8-1.1,0.8-2.7,0.4-3.8
		c-0.4-2.7-0.4-4.9-0.4-7.6c0-3.8,0-7.6,0-11c0-1.5,0.4-3-1.1-4.5c-3-1.1-6.8-2.7-10.2-4.2c-6.4-2.7-12.9-4.9-18.9-7.2
		c-2.7-1.1-5.7-2.3-8.7-1.9c-4.2,1.5-8.3,3.4-13.3,5.3c5.3,2.7,11,4.2,15.5,6.4c0.8,1.1,0.4,1.5,0,2.3
		C140.1,184.2,135.2,185.7,129.9,188.3z M258.4,318.3c-3.4,0.8-12.5,4.2-16.7,6.4c0,18.9-0.4,37.9,0,56.5c6.1,3,13.6,6.1,16.7,6.1
		C258.4,364.5,258.4,341.4,258.4,318.3z M395.9,171.7c6.1-2.3,11.4-4.2,16.3-6.4c0.4-2.7-0.4-25.4-1.1-27.3
		c-5.3,1.5-10.2,4.2-15.2,6.4C395.9,153.1,395.9,161.8,395.9,171.7z M258.4,272.4c-3.4-2.7-11-6.1-16.3-6.8c-0.8,3-0.4,5.7-0.4,8.7
		s0,6.1,0,9.1s-0.4,5.7,0.8,9.5c5.3-2.7,11-3.8,15.9-6.8C258.4,281.5,258.4,277,258.4,272.4z M165.9,365.6c4.5-0.8,12.1-3.8,14-5.7
		c-4.2-2.3-11-4.9-14-5.3c-0.8,1.1-0.4,2.7-0.4,3.8C165.5,360.7,165.1,363,165.9,365.6z M165.9,205c-0.8,3.4-0.4,7.2,0,10.6
		c3.4-0.4,10.6-3,14-5.3C177.3,208.4,169.7,205.4,165.9,205z M338.3,388c3.8-0.8,11-3.4,13.6-5.3c-4.5-2.3-10.6-4.5-14-4.9
		C337.9,381.2,337.2,384.6,338.3,388z M315.2,216c1.1-0.8,1.5-1.5,1.1-2.3c0-2.7,0.4-5.7-0.4-8.3c-4.2,0.8-11.4,3.8-13.6,5.7
		C306.9,212.6,311,214.5,315.2,216z M225,180.4c6.1,3,11.4,4.9,14.4,5.3c0-1.9,0.4-3.8,0.4-5.3c0-1.9,1.1-3.4,0-5.7
		C234.9,176.6,230.3,178.5,225,180.4z M352.7,202.7c-5.3-1.5-9.5-3.8-14.4-4.9c-0.4,3.8-0.8,7.2,0,10.6
		C341.7,207.6,348.5,205,352.7,202.7z M315.9,385c-4.2,0.8-11.4,3.4-14,5.7c4.5,1.9,8.7,3.8,13.6,5.3
		C316.7,391.8,316.7,388.4,315.9,385z M352.3,128.5c-4.9-2.7-11.4-5.3-14.4-5.3c-0.4,3.4-0.8,6.8,0.4,10.6
		C342.8,132.2,347.4,130.4,352.3,128.5z M338.3,372.8c3.8-0.8,11-3.4,13.3-5.3c-4.2-2.3-10.2-4.5-13.3-4.9
		C337.5,366,337.5,369.8,338.3,372.8z M86,234.9c-2.7,1.1-4.9,1.9-7.2,2.7c-2.3,0.8-4.5,1.5-6.4,3c6.1,3,11.4,4.9,14,4.9
		C86.3,242.1,86.7,238.7,86,234.9z M72.3,255c3.4,2.3,10.6,4.9,14,5.7c0.4-3.4,0.4-6.8,0-10.6C81.4,251.2,77.2,253.1,72.3,255z
		 M373.2,73.9c1.1-5.3,0.8-8.7-0.4-11c-4.2,1.9-8.7,3-13.3,5.7C364.4,70.5,368.6,72.4,373.2,73.9z M86,264.9
		c-4.9,1.9-9.5,3.4-14.8,5.7c5.3,1.9,9.5,4.2,14.8,5.3C86.7,272.1,86.7,269,86,264.9z M373.5,167.9c-4.2,0.4-11.4,3.4-13.6,5.3
		c4.5,1.9,8.7,3.8,13.6,5.3C374.3,174.7,373.9,171.3,373.5,167.9z M359.5,307.7c4.9,2.7,11,4.9,14,5.3c0.8-4.5,0.8-7.6-0.8-10.6
		C368.2,303.9,364.1,305.8,359.5,307.7z M373.5,343.7c0.4-4.2,0.8-7.6-0.4-11.4c-4.5,1.9-9.1,3.4-14,5.7
		C364.1,339.9,368.6,341.8,373.5,343.7z M86,279.6c-4.9,1.9-9.5,3.4-13.6,5.7c2.7,1.9,9.5,4.5,13.6,5.3
		C86.7,287.2,86.7,283.8,86,279.6z M373.2,227.3c-4.5,1.9-9.1,3.4-14,5.7c2.7,1.1,4.9,2.3,7.2,3c2.3,0.8,4.5,2.7,7.2,1.9
		C373.9,233.8,373.9,231.1,373.2,227.3z M277.7,40.2c-6.1,1.5-11.7,4.2-13.6,5.7c2.3,0.8,4.5,1.9,6.8,2.7c2.3,0.8,4.5,2.3,7.2,2.3
		C278.1,47.4,278.4,44,277.7,40.2z M71.9,300.1c4.5,2.7,11.4,5.3,14.4,5.3c0.8-1.5,0.4-3.4,0.4-4.9c0-1.9,0.4-3.8-0.8-5.7
		C81,296.7,76.5,298.2,71.9,300.1z M294.4,46.2c0-0.4,0-0.4,0-0.8c-2.3-0.8-4.5-1.9-6.8-2.7c-2.3-0.8-4.5-2.3-7.2-2.3
		c-0.8,4.9-0.8,8,0.4,11C285.6,49.6,290.2,47.8,294.4,46.2z M278.1,145.5c-4.2,0.8-11.4,3.4-14,5.7c4.9,1.5,9.1,3.8,14,4.9
		C278.4,152.3,278.1,149.3,278.1,145.5z M86,156.5c1.1-4.5,0.8-8-0.4-11.4c-4.5,1.9-9.1,3.4-14,5.7C76.5,152.7,81,154.6,86,156.5z
		 M373.2,373.2c1.1-4.5,0.8-8-0.4-11c-4.5,1.5-8.7,3.4-14,5.3C364.1,369.8,368.2,371.7,373.2,373.2z M244.3,294.4
		c4.5,2.3,8.7,3.8,13.6,5.3c0.4-3.8,0.4-7.2,0-11C254.2,289.5,247.4,292.1,244.3,294.4z M376.6,358.1c1.9,0.4,3-0.8,4.5-1.5
		c1.5-0.4,3-1.1,4.5-1.5c1.5-0.8,3.4-0.8,4.2-2.3c-5.3-3-10.6-4.9-14-4.9c0,2.3,0,4.9,0,7.2C376.2,356.2,375.8,356.9,376.6,358.1z
		 M373.5,358.1c0.8-4.2,0.8-8.3-0.4-10.6c-3.8,1.5-8,3-11.7,4.5c-0.4,0-0.8,0.4-0.8,0.8C363.3,355,369.8,357.3,373.5,358.1z
		 M181.1,373.2c1.5-0.8,1.1-1.9,1.1-2.7c0-2.7,0.4-5.3-0.4-8c-4.2,0.8-11,3.4-13.6,5.7C172.3,369.8,176.9,371.7,181.1,373.2z
		 M181.8,89.1c0.8-4.2,0.8-7.6,0-11.4c-4.9,1.9-9.1,3.4-14.4,5.7C172.3,85.6,176.9,87.2,181.8,89.1z M358.8,278.1
		c5.3,1.9,9.9,4.2,14.8,5.3c0.4-3.8,0.8-7.2-0.4-11C368.2,274,364.1,275.8,358.8,278.1z M332.2,272.1c-1.9-1.9-9.1-4.9-13.3-5.7
		c-0.8,3.4-0.8,6.8,0,10.6C323.5,275.5,327.7,273.6,332.2,272.1z M239.4,205.4c-3,0.4-9.9,2.7-14,4.9c4.2,2.3,11,4.9,14,4.9
		C239.8,212.2,239.8,208.8,239.4,205.4z M353.5,281.5c-3,0-10.6,3-13.3,5.3c6.1,3,11,4.9,13.6,4.9
		C354.6,287.2,354.2,284.6,353.5,281.5z M373.5,258c-3,0-8.3,2.3-14,4.9c3,2.3,10.6,4.9,13.6,4.9C374.3,264.5,373.9,261.4,373.5,258
		z M373.5,298.2c0.8-3.8,0.8-7.2,0-11c-4.9,1.9-9.1,3.4-13.6,5.3C362.6,294.8,369.4,297.4,373.5,298.2z M430.8,250.1
		c-4.2,0.8-10.6,3.4-13.6,5.7c4.5,2.3,8.7,3.8,13.6,5.3C431.5,257.3,431.5,253.9,430.8,250.1z M373.5,242.9
		c-4.5,0.8-11.4,3.4-13.6,5.7c4.5,1.9,8.7,3.8,13.6,4.9C373.9,249.7,373.9,246.3,373.5,242.9z M376.6,373.6c4.9-1.9,9.5-3.4,14-5.7
		c-4.5-2.7-11.4-4.9-14-4.9C375.8,366.4,375.8,369.8,376.6,373.6z M143.6,347.8c-4.2,0.4-11.4,3.4-13.6,5.7
		c4.5,1.9,8.7,3.8,13.6,5.3C143.9,354.7,144.3,351.2,143.6,347.8z M129.9,308.4c4.2,1.5,8.3,3,12.1,4.5c0.4,0,0.8,0,1.5,0
		c0.8-3.4,0.4-6.8,0-11C138.6,303.9,134.5,305.8,129.9,308.4z M143.9,332.7c-3.8,0.4-11.7,3.8-14,5.7c4.5,1.5,8.7,3.8,13.6,4.9
		C144.3,339.5,143.9,336.1,143.9,332.7z M165.5,325.9c-0.8,4.9-0.8,7.6,0,10.6c3-0.4,9.9-2.7,13.6-4.9
		C174.6,328.9,170.1,327.8,165.5,325.9z M148.1,331.9c2.7,1.1,4.9,1.9,7.2,2.7c2.3,0.8,4.2,2.3,6.8,1.9c0.4-3.4,0.8-6.8-0.4-10.6
		c-3.8,1.5-7.2,2.7-11,4.2C150,330.4,149.2,330.4,148.1,331.9z M199.6,83c-3-1.1-5.3-2.3-7.6-3s-4.5-2.3-7.2-2.3
		c0,3.8-0.8,7.2,0.4,10.6C190.2,87.2,194.3,85.3,199.6,83z M373.5,107.2c-4.9,1.9-9.5,3.8-14,5.7c3.8,2.3,11,4.9,14,5.3
		C374.3,114.8,373.9,111.4,373.5,107.2z M71.2,120.5c5.3,2.3,9.9,4.2,14.4,5.3c1.1-3.4,1.1-7.2,0-11C81,116.7,76.9,118.6,71.2,120.5
		z M89,126.6c4.9-1.9,9.5-3.8,14-5.7c-3.8-2.7-11-5.3-14-5.3C88.6,119,88.6,122.4,89,126.6z M359.5,322.4c0,0.4,0,0.8,0,0.8
		c2.3,0.8,4.5,1.9,6.8,2.7c2.3,0.8,4.2,2.3,6.8,1.9c1.1-3.8,0.8-7.6-0.4-10.6C368.6,319,364.1,320.9,359.5,322.4z M103,150.8
		c-3.8-2.3-10.6-4.9-14-5.3c-0.8,3.8-0.8,7.2,0.4,10.6C93.9,154.6,98.5,152.7,103,150.8z M281.1,156.5c4.5-1.9,9.1-3.4,14-5.7
		c-3-1.1-4.9-1.9-7.2-2.7c-2.3-0.8-4.5-2.3-7.2-1.9C280,149.7,280.3,152.7,281.1,156.5z M168.2,158c4.5,2.7,10.6,4.9,13.6,4.9
		c0.4-3.4,0.8-6.8-0.4-9.9C178.4,153.5,172.7,155.4,168.2,158z M198.9,158.4c-4.5-3-11-5.3-14-4.9c-0.4,3.4-0.8,6.4,0,10.2
		C189.8,162.2,193.9,160.3,198.9,158.4z M86,175.4c-3.4,0.4-11,3.4-13.6,5.7c4.5,1.9,9.1,3.8,13.6,4.9
		C86.7,182.6,86.7,178.8,86,175.4z M89,185.7c3.4-0.4,11-3.4,14-5.3c-2.3-0.8-4.5-1.9-6.8-2.7c-2.3-0.8-4.5-2.3-7.6-1.9
		C89,179.2,88.2,182.3,89,185.7z M335.3,197c-4.9,1.9-9.5,3.8-14,5.7c3.8,2.7,11,5.3,14,5.3C335.7,204.6,335.7,201.2,335.3,197z
		 M359.9,187.9c4.5,1.9,8.7,4.2,13.6,5.3c0.8-3.8,0.8-7.2,0-11C368.6,183.8,364.1,185.7,359.9,187.9z M315.6,130.4
		c-4.9,1.1-10.6,3.8-12.9,5.3c5.7,3,11,4.9,13.6,4.9c0.4-2.3,0.4-4.5,0-6.8C316.3,133,316.3,131.5,315.6,130.4z M127.3,250.5
		c-0.4,3.4-0.4,6.8,0,10.2c4.5-0.8,10.6-3.4,13.3-5.3C137.1,253.1,130.7,250.8,127.3,250.5z M321.6,128.1c4.2,2.3,8.7,4.2,13.6,5.7
		c0.4-3.8,0.8-7.2,0-11C330.3,123.9,326.2,126.2,321.6,128.1z M226.2,195.5c3,1.9,9.5,4.5,13.3,5.3c0.8-3.4,0.8-7.2,0-10.2
		C235.6,191,228.8,193.6,226.2,195.5z M377,118.6c4.5-1.5,9.1-3.4,13.6-5.3c-5.3-3-11.4-4.9-14.4-5.3c0,2.3,0,4.9,0,7.2
		C376.2,116.3,375.8,117.5,377,118.6z M143.6,197.8c-3,0.4-9.9,3-14,5.3c4.9,1.9,9.5,3.8,14,5.3c0.8-2.3,0.4-4.2,0.4-5.7
		S144.3,199.7,143.6,197.8z M223.1,358.1c4.9-1.1,11-3.4,13.3-5.3c-3.8-2.3-10.2-4.5-13.3-4.9C223.1,351.2,223.1,354.7,223.1,358.1z
		 M239,275.8c0.8-5.7,0.8-8.3-0.8-11c-4.5,1.9-8.7,3.4-14,5.7C229.9,272.4,234.1,274.7,239,275.8z M143.9,92.5
		c-5.3,1.9-9.9,3.4-14.8,6.1c5.3,1.9,9.5,3.8,14,5.3c0.8-0.8,0.8-1.5,0.8-2.3C143.9,98.5,143.9,95.9,143.9,92.5z M225.4,330
		c3.4,2.3,10.6,4.9,13.6,5.3c0.8-3.8,0.8-7.2-0.4-10.6C234.5,326.6,229.9,328.1,225.4,330z M417.1,285.3c4.9,3,11,4.9,14,5.3
		c0.4-3.4,0.8-6.8-0.4-10.6C426.2,281.5,421.7,283,417.1,285.3z M414.8,331.9c-0.4,4.2-0.4,7.6,0,11c3.4-0.8,10.6-3.4,14-5.3
		C424.3,335.7,419.8,334.2,414.8,331.9z M239.4,355.4c-3,0.4-9.9,2.7-13.6,4.9c4.2,2.7,11,4.9,13.6,4.9c0.8-1.9,0.4-4.2,0.4-6.4
		C239.8,357.7,239.8,356.6,239.4,355.4z M129.9,277.4c0,0.4,0,0.4,0,0.8c2.3,0.8,4.5,1.9,6.8,2.7c2.3,0.8,4.5,2.3,7.2,2.3
		c0-3.8,0.8-7.2-0.4-11C138.6,274,134.1,275.8,129.9,277.4z M416,330.4c5.7,1.9,9.9,4.2,14.8,5.3c0.4-3.8,0.8-7.2-0.4-11
		C425.8,326.6,421.7,328.1,416,330.4z M239.4,280c-4.2,1.5-8.3,3-12.1,4.5c-0.8,0.4-1.5,0.4-1.1,1.5c4.2,1.9,8.3,3.8,13.3,4.9
		C239.8,287.2,239.8,283.8,239.4,280z M321.6,52.7c0,0.4,0,0.4,0,0.8c2.3,0.8,4.5,1.9,6.8,2.7c2.3,0.8,4.5,2.3,7.2,1.9
		c0.4-3.4,0.4-6.8,0-10.2c-0.8,0-1.1,0-1.5,0C329.6,49.6,325.4,51.2,321.6,52.7z M239.8,321.3c0-4.2,0.4-7.6-0.4-11
		c-1.9,0-3.4,0.8-4.9,1.5c-1.5,0.4-3,1.1-4.5,1.9c-1.5,0.8-3,0.8-4.5,2.7C230.3,317.5,234.5,319.4,239.8,321.3z M428.1,353.5
		c0-0.4,0-0.8,0-1.1c-4.2-1.5-8.7-3.4-13.6-5.3c0,4.2-0.4,7.6,0.4,11.4C419.8,356.9,423.9,355,428.1,353.5z M127.3,291.4
		c4.9-2.3,9.5-3.4,13.6-6.1c-5.3-3-10.6-4.9-14-4.9C126.9,283.8,126.9,287.2,127.3,291.4z M321.3,382.7c5.7,3,11,4.9,14,5.3
		c0-3.4,0.8-6.8-0.4-10.6C330.3,378.9,325.8,380.4,321.3,382.7z M141.3,225.5c-4.5-1.9-9.1-3.8-13.6-5.3c-0.8,3.8-0.4,7.2,0,10.6
		C131,230.4,137.9,227.7,141.3,225.5z M256.8,225.5c-4.5-2.7-11-4.9-14-5.3c-0.4,3.4-0.4,6.8,0.4,10.6
		C247.7,229.6,251.9,227.7,256.8,225.5z M431.1,231.1c0.4-3.8,0.8-7.2,0-11.4c-4.5,1.9-9.1,3.4-14,6.1
		C421.7,227.7,426.2,229.6,431.1,231.1z M225.4,345.2c4.5,2.7,11,4.9,14,5.3c0.4-3.4,0.4-6.8,0-10.2c-1.1-0.4-1.9,0-2.7,0.4
		C233,342.2,229.6,343.3,225.4,345.2z M143.6,317.5c-4.2,0.8-11.4,3.4-13.6,5.7c4.5,1.9,8.7,3.8,13.6,5.3
		C143.9,324.7,144.3,321.3,143.6,317.5z M223.1,317.1c-0.4,4.2-0.8,7.6,0,11c4.5-1.1,11-3.4,13.6-5.7
		C232.6,320.6,228,319,223.1,317.1z M430.8,339.9c-4.5,1.5-9.1,3-13.3,5.3c2.7,1.9,9.5,4.5,13.3,5.3
		C431.5,347.5,431.5,344,430.8,339.9z M239.4,160.3c-6.1,1.5-11.4,3.8-13.3,5.7c4.9,2.7,10.6,4.5,13.6,4.9
		C239.8,167.1,239.8,164.1,239.4,160.3z M417.1,300.5c4.5,1.9,8.7,4.2,13.6,5.3c0.8-3.8,0.8-7.2,0-11
		C425.8,296.3,421.7,298.6,417.1,300.5z M127.3,170.9c5.3-1.1,11.4-3.8,13.6-5.7c-3.8-2.3-10.2-4.5-13.6-4.9
		C127.3,164.1,127.3,167.1,127.3,170.9z M414.8,317.5c-0.8,3.8-0.4,7.2,0,11c2.7,0,4.9-1.5,6.8-2.3c2.3-0.8,4.9-1.1,6.8-3.4
		C423.9,320.6,419.8,318.7,414.8,317.5z M414.8,223.6c5.3-1.1,11.4-3.8,13.3-5.7c-3.8-2.3-10.6-4.5-13.6-4.9
		C414.5,216.4,414.5,219.8,414.8,223.6z M319,215.6c3.4-0.4,10.6-3,14-5.3c-2.3-1.1-4.5-1.9-6.8-2.7c-2.3-0.8-4.5-2.3-7.2-2.3
		C318.6,209.2,318.6,212.2,319,215.6z M237.1,188.3c-5.3-3-11.4-5.3-14.4-5.3c0,3.4-0.4,6.8,0.4,10.6
		C228,192.1,232.6,190.2,237.1,188.3z M239.4,385.3c-1.9-0.4-2.7,0.4-3.8,0.8c-3.4,1.1-6.8,2.7-11.4,4.5c5.7,1.9,9.9,4.2,14.8,5.3
		C239.8,391.8,239.8,388.8,239.4,385.3z M223.1,223.2c3.8-0.4,11.4-3.4,13.3-5.3c-4.9-2.7-10.6-4.5-13.6-4.5
		C223.1,216.4,222.7,219.8,223.1,223.2z M237.1,338c-4.2-2.7-11-4.9-14-4.9c-0.4,3.4-0.4,6.8,0,10.6
		C228,341.8,232.6,340.3,237.1,338z M127.3,309.6c0,4.2-0.8,7.6,0.4,11.7c4.5-1.9,9.1-3,14-6.1C136.7,313.4,132.2,311.5,127.3,309.6
		z M141.3,345.6c-4.2-2.7-11-4.9-14-5.3c-0.4,3.4-0.4,6.8,0.4,10.6C132.2,349.4,136.7,347.8,141.3,345.6z M431.1,320.6
		c0.4-3.4,0.4-6.8,0-10.2c-3.8,0.8-10.6,3.4-13.3,5.3C420.9,317.5,427.7,320.2,431.1,320.6z M414.8,313.4c1.5-0.4,2.3-0.8,3.4-1.1
		c3.4-1.5,7.2-2.7,10.6-4.2c-3.8-2.3-11.4-5.3-14.4-5.3C414.5,306.2,414.1,309.6,414.8,313.4z M414.8,287.2c-0.4,4.2-0.8,7.6,0,11
		c4.5-1.1,11-3.4,13.6-5.7C423.9,290.6,419.8,289.1,414.8,287.2z M396.7,309.2c4.9,1.9,8.7,3.4,12.9,4.9c0.4,0.4,1.1,0.4,1.9,0
		c0.8-3.4,0.8-6.8,0-10.6C406.5,305,402,306.9,396.7,309.2z M223.1,288c-0.4,3.4-0.4,6.8,0,10.2c4.2-0.8,10.6-3.4,13.3-5.3
		C233.7,291,226.9,288.3,223.1,288z M141.7,300.5c-6.8-3.4-11.7-5.3-14.4-4.9c0,3.4-0.4,6.8,0.4,10.2
		C132.6,304.6,136.7,302.7,141.7,300.5z M143.9,298.6c0-4.2,0.4-7.6-0.4-11.4c-4.5,1.9-9.1,3.4-14,5.7
		C134.1,295.5,138.6,297.1,143.9,298.6z M239.8,306.2c0-3.4,0-6.1,0-8.7c0-0.8,0-1.5-0.8-1.9c-3.4,0.4-10.2,3-13.6,5.3
		C229.9,302.7,234.5,304.3,239.8,306.2z M127.6,335.3c3.8-0.4,11-3.4,14-5.3c-4.5-1.5-9.1-3.8-14-4.9
		C126.9,328.5,126.9,331.9,127.6,335.3z M301.6,45.9c5.3,2.3,9.5,4.2,14,5.3c1.5-3.8,1.5-7.2,0-10.6C311,41.7,306.9,43.6,301.6,45.9
		z M236.8,69c0-0.4,0-0.8,0-0.8c-4.5-1.9-8.7-3.8-13.6-5.3c-0.4,3.8-0.8,7.2,0.4,11.4C228,72,232.2,70.5,236.8,69z M414.8,103.4
		c4.5-0.8,11-3.4,13.6-5.7c-4.5-1.9-9.1-3.8-13.6-5.3C414.5,96.6,414.1,100,414.8,103.4z M127.3,141.7c4.9-2.3,9.5-3.4,14-5.7
		c-4.2-2.3-10.6-4.9-13.6-5.3C126.9,133.8,127.3,137.2,127.3,141.7z M319,130.4c-0.4,3.4-0.4,6.8,0,10.2c3.8-0.8,10.6-3.4,13.3-5.3
		C329.2,133.8,322.4,131.1,319,130.4z M129.9,143.2c4.5,2.7,11,4.9,14,4.9c0-2.3,0-4.5,0-6.8c0-1.1,0.4-2.3-0.4-3.4
		C140.1,138.3,133.3,141,129.9,143.2z M141.3,180.4c-2.3-0.8-4.5-1.9-6.8-2.7c-2.3-0.8-4.5-2.3-7.2-1.9c-0.4,3.4-0.8,6.8,0.4,10.6
		C132.6,184.9,136.7,182.6,141.3,180.4z M141.3,195.9c-4.5-2.7-10.6-4.9-14-5.3c-0.8,4.2-0.8,7.6,0.4,10.6
		C132.2,199.7,136.7,197.8,141.3,195.9z M319.4,395.2c3.4-0.4,10.6-3.4,13.3-5.3c-6.4-3-11-4.9-13.6-4.5
		C318.6,389.9,318.6,392.5,319.4,395.2z M243.2,215.6c3.4-0.8,10.2-3.8,12.9-5.7c-4.5-1.5-8.3-4.2-12.5-5.3
		C242.4,208,242.4,212.2,243.2,215.6z M430.8,205.4c-3.8,0.4-11,3.4-14,5.3c4.5,1.5,9.1,3.8,14,4.9
		C431.5,212.2,431.5,208.8,430.8,205.4z M223.1,388.4c4.9-1.1,11.4-3.8,13.6-5.7c-4.2-2.3-10.2-4.5-13.3-4.9
		C222.7,381.2,223.1,384.6,223.1,388.4z M143.6,227.7c-4.2,0.8-11.4,3.4-13.6,5.7c4.5,1.9,8.7,3.8,13.6,5.3
		C143.9,234.9,144.3,231.1,143.6,227.7z M301.6,375.5c4.9,1.9,9.1,4.2,13.6,4.9c0,0,0.4-0.4,0.8-0.4c0.4-3,1.1-6.4-0.4-9.9
		c-3.4,0.4-6.1,1.9-8.7,3C305.3,373.6,303.8,374.4,301.6,375.5z M414.5,238.3c4.9-1.1,11.4-3.4,13.6-5.3c-3.4-2.3-10.2-4.5-13.3-4.9
		c-0.4,0.8-0.4,1.5-0.4,1.9C414.5,232.7,414.5,235.3,414.5,238.3z M127.6,245.5c3.4-0.8,11-3.4,13.3-5.3c-6.1-3-11-4.9-13.6-4.5
		C126.9,240.2,126.9,242.5,127.6,245.5z M414.8,272.8c-0.4,3.4-0.4,6.8,0,10.6c3.8-0.8,10.6-3.4,13.3-5.3
		C425.4,276.2,418.6,273.6,414.8,272.8z M319,370.2c-0.8,3.8-0.8,7.2,0.4,10.2c4.2-0.8,10.6-3.4,12.9-5.3
		C329.2,373.2,322.4,370.6,319,370.2z M416.4,240.2c6.4,3.4,11.7,5.3,14.4,4.9c0.4-3.4,0.8-6.4-0.4-10.2
		C425.8,236.4,421.7,238.3,416.4,240.2z M143.6,242.5c-2.7,0-4.9,1.5-6.8,2.3c-2.3,0.8-4.9,1.1-6.8,3.4c4.9,1.9,9.1,3.8,13.6,4.9
		C144.3,249.7,143.9,246.3,143.6,242.5z M414.5,242.1c0,4.2-0.4,7.6,0.4,11c5.3-1.1,11-3.8,13.3-5.7
		C423.9,245.5,419.8,244,414.5,242.1z M416.7,270.2c4.5,2.7,11.4,4.9,14.4,5.3c0.4-3.4,0.8-6.8-0.4-10.6
		C425.8,266.8,421.3,268.3,416.7,270.2z M143.6,257.7c-4.5,1.1-10.6,3.4-13.3,5.3c3.4,2.3,10.6,4.9,13.6,4.9c0-2.7,0-4.9,0-7.6
		C143.9,259.6,143.9,258.8,143.6,257.7z M414.8,268.3c4.5-1.1,11-3.4,13.6-5.3c-3.4-1.9-10.2-4.5-13.6-4.9
		C414.8,261.1,414.8,264.5,414.8,268.3z M141.3,270.2c-4.5-1.5-8.7-4.2-13.6-5.3c-0.8,3.8-0.8,7.2,0,11
		C132.6,274.3,136.7,272.8,141.3,270.2z M224.6,61c5.7,1.9,9.9,4.2,14.8,5.3c0.4-3.8,0.8-7.2-0.4-11C234.5,56.8,229.9,58.4,224.6,61
		z M223.1,283.4c6.1-1.5,11.4-3.8,13.3-5.7c-4.5-2.7-10.6-4.5-13.6-4.9C223.1,276.2,222.7,279.6,223.1,283.4z M430.8,85.6
		c-3.4,0.4-10.6,3-13.6,4.9c5.3,2.7,11,4.9,14,4.9C431.5,92.5,431.5,89.1,430.8,85.6z M127.6,100c-0.8,3.8-0.4,7.2,0,11
		c2.7,0,4.9-1.5,6.8-2.3c2.3-0.8,4.9-1.1,6.8-3.4C136.4,103.4,132.2,101.6,127.6,100z M223.1,362.2c-0.4,4.2-0.8,7.6,0.4,11.4
		c4.5-1.9,9.1-3.4,14.4-5.7C232.6,365.6,228.4,364.1,223.1,362.2z M236.4,263c-2.7-1.9-9.5-4.5-13.3-5.3c-0.4,3.4-0.4,6.8,0,10.2
		C227.3,267.5,234.1,264.9,236.4,263z M223.1,167.5c0,3.8-0.8,7.2,0.4,10.6c3.4-0.4,11-3.4,13.6-5.3
		C232.6,170.9,228.4,169,223.1,167.5z M223.1,208c3.4-0.4,10.6-3,13.3-4.9c-3.4-1.9-10.2-4.5-13.3-4.9
		C222.7,201.2,222.7,204.6,223.1,208z M236.8,233.4c0-0.4,0-0.8,0-1.1c-2.3-0.8-4.5-1.9-6.8-2.7c-2.3-0.8-4.2-2.3-6.8-1.9
		c-0.4,3.8-0.8,7.2,0.4,11C228,236.8,232.2,235.3,236.8,233.4z M225.4,240.6c5.3,2.7,11,4.9,14.4,4.9c0-3.4,0.8-6.4-0.4-10.2
		C234.1,236.8,229.6,238.3,225.4,240.6z M321.6,367.9c4.2,1.9,8.3,4.2,13.3,5.3c0.8-3.8,0.8-7.2,0-11
		C330.3,363.7,325.8,365.6,321.6,367.9z M357.6,380.8c4.9-1.5,9.1-3.4,13.6-5.3c-3-2.3-9.9-4.9-13.6-5.7
		C356.9,373.6,356.9,377,357.6,380.8z M392.9,339.9c-3,0.4-5.3,1.5-7.6,2.7c-2.3,0.8-4.5,1.1-6.4,3.4c4.5,1.9,9.1,3.8,13.6,5.3
		C393.2,347.1,392.9,343.7,392.9,339.9z M283,38.7c4.5,1.9,8.7,3.8,13.6,5.3c0.4-3.8,0.4-7.2,0-10.6C292.8,33.7,286,36.4,283,38.7z
		 M186.7,75.4c4.5,2.7,11,4.9,14.4,5.3c0-3.4,0.8-6.8-0.4-10.6C196.2,72,191.7,73.5,186.7,75.4z M378.8,105.3c4.5,2.7,11,4.9,14,5.3
		c0-3.4,0.8-6.8-0.4-10.6C387.6,101.6,383.4,103.4,378.8,105.3z M70,242.5c-0.4,3.8-0.8,7.2,0,11c4.5-0.8,11-3.4,13.3-5.7
		C79.1,245.5,74.6,244,70,242.5z M392.5,81.1c0.8-4.5,0.8-7.6-0.4-10.6c-4.5,1.1-10.6,3.4-13.3,5.7C383.4,78.1,387.9,80,392.5,81.1z
		 M357.2,260.7c4.2-0.4,11.4-3.4,13.3-5.3c-5.7-3-10.6-4.5-13.6-4.5C357.2,253.9,356.9,257.3,357.2,260.7z M315.6,266
		c-6.1,1.5-11.4,3.8-13.3,5.7c4.2,2.3,10.2,4.5,13.3,4.5C315.9,273.2,315.9,269.8,315.6,266z M91.6,112.9c0,0.4,0,0.8,0,1.1
		c3.8,1.5,7.6,3,11.4,4.5c0.4,0.4,1.1,0.4,1.9,0c0.4-3.4,0.8-6.8,0-10.2C100.4,109.1,95.8,111,91.6,112.9z M371.3,180.4
		c-4.9-2.7-11-4.9-14-5.3c-0.8,4.5-0.4,7.6,0.4,10.6C362.2,184.2,366.7,182.6,371.3,180.4z M200.8,159.9c-4.5,1.5-9.1,3.4-13.6,5.3
		c3,2.3,9.9,4.9,13.6,5.7C201.5,167.5,201.5,164.1,200.8,159.9z M83.3,278.5c0-0.4,0-0.8,0-1.1c-4.2-1.9-8.7-3.8-13.3-5.3
		c-0.8,4.5-0.8,7.6,0.4,11C75,281.9,79.1,280,83.3,278.5z M357.2,125.8c4.9-0.8,11-3.4,13.6-5.7c-2.3-1.1-4.5-1.9-6.8-2.7
		s-4.2-2.3-6.8-1.9C356.9,119,356.9,122.4,357.2,125.8z M91.3,128.1c5.3,3,11,4.9,14.4,5.3c0-3.4,0.4-6.8-0.4-10.6
		c-1.1,0.4-2.3,0.8-3,0.8C98.5,125,95.1,126.2,91.3,128.1z M104.9,152.3c-4.5,1.9-9.1,3.4-14,5.7c5.3,1.9,9.5,4.2,14,5.3
		C105.7,159.9,105.7,156.5,104.9,152.3z M351.2,278.9c-4.5-1.9-8.7-4.2-13.3-5.3c-0.4,3.8-0.8,7.2,0,11
		C342.8,283,347,281.2,351.2,278.9z M167.8,324c4.2,2.3,8.7,4.2,13.3,5.7c0.4-3.8,0.8-7.2,0-11C176.5,319.8,172.3,321.7,167.8,324z
		 M357.2,309.9c0,3.4,0,6.1,0,8.7c0,0.8,0,1.5,0.8,2.3c1.5,0,3-0.8,4.5-1.5c1.5-0.4,3-1.1,4.2-1.5c1.5-0.8,3-0.8,4.2-2.7
		C366.3,313.4,362.2,311.1,357.2,309.9z M223.1,313.4c4.9-1.1,11-3.4,13.6-5.7c-2.3-1.1-4.5-1.9-6.8-2.7c-2.3-0.8-4.2-2.3-6.8-1.9
		C222.7,306.5,222.7,309.6,223.1,313.4z M354.2,189.8c-4.5,1.5-9.1,3.4-13.6,5.3c3.4,2.3,10.6,5.3,14,5.3
		C354.6,197,355,193.6,354.2,189.8z M371.3,285.7c-5.7-3-11-4.9-14-4.9c-0.4,3.4-0.4,6.8,0,10.6C362.2,289.5,366.7,288,371.3,285.7z
		 M84.1,293.3c-5.7-3-11.4-4.9-14.4-4.9c-0.4,3.4-0.4,6.8,0,10.6C74.6,297.1,79.1,295.2,84.1,293.3z M357.6,335.3
		c3-0.4,10.2-3,13.3-4.9c-3.4-2.3-10.2-4.5-13.6-4.9C356.9,328.9,356.9,331.9,357.6,335.3z M370.9,240.6c-3-1.9-9.9-4.9-13.3-4.9
		c-0.4,3.4-0.8,6.8,0.4,10.6c3.8-1.5,7.2-2.7,10.6-4.2C369.4,241.7,370.1,241.7,370.9,240.6z M84.1,173.5c-4.2-2.7-10.6-4.9-14-5.3
		c0,3.4-0.4,6.8,0.4,10.6C75,177.3,79.1,175.4,84.1,173.5z M297,148.5c0.4-4.2,0.8-7.6,0-10.6c-4.5,1.1-11,3.4-13.6,5.7
		C287.5,145.5,291.7,147.4,297,148.5z M69.7,268.3c4.9-1.1,11.4-3.8,13.6-5.3c-3.8-2.3-10.2-4.5-13.3-4.9
		C69.3,261.4,69.7,264.5,69.7,268.3z M357.6,275.5c3.4-0.4,10.2-3,13.3-4.9c-3.4-2.3-10.2-4.9-13.3-4.9
		C356.9,268.6,356.9,272.1,357.6,275.5z M179.5,91.3c0-0.4,0-0.8,0-1.1c-3.8-1.5-7.6-3-11.4-4.5c-0.4,0-1.1,0-1.5,0
		c-1.1,3.8-0.8,7.2,0.4,10.6C170.8,94.7,175,92.8,179.5,91.3z M261.8,47.8c-0.4,3.8-0.8,7.2,0,11c4.5-1.5,9.1-3.4,14.4-5.7
		C270.9,51.2,266.7,49.3,261.8,47.8z M84.1,308.1c-5.3-3-11-5.3-14-4.9c-0.4,3.4-0.8,6.4,0.4,10.2C75,311.8,79.1,309.9,84.1,308.1z
		 M357.6,365.3c3.4-0.4,10.2-3,13.3-4.9c-3.4-2.3-9.9-4.5-13.6-4.9C356.9,358.8,356.9,361.9,357.6,365.3z M357.6,190.2
		c-0.8,3.8-0.8,7.2,0.4,10.6c4.5-1.5,8.7-3,12.9-5.3C368.2,193.2,361.4,190.6,357.6,190.2z M179.5,150.8c-4.9-3-11-4.9-13.6-4.9
		c-0.8,4.2-0.8,6.8,0.4,10.2C170.5,154.6,175,153.1,179.5,150.8z M261.8,152.7c-0.8,5.7-0.4,8,0.4,10.6c5.7-1.5,10.6-3.8,12.9-5.7
		C270.9,155.7,266.3,153.8,261.8,152.7z M241.7,306.9c5.7-1.5,11.4-3.8,13.6-5.7c-4.9-2.7-10.2-4.5-13.3-4.9
		C241.7,299.7,241.7,303.1,241.7,306.9z M105.3,194c0.4-4.2,0.8-7.6,0-11c-4.9,1.1-11,3.8-13.3,5.3c0.8,0.8,1.5,1.1,2.7,1.5
		C97.7,191,101.1,192.1,105.3,194z M53,172.8c3,2.3,10.2,4.9,13.6,5.3c0.4-3.4,0.8-6.8,0-10.2c-1.9,0-3,0.8-4.2,1.1
		C59.4,170.1,56.4,171.7,53,172.8z M411.8,178.5c0.4-4.2,0.8-7.6-0.4-11c-4.9,1.1-9.1,3.4-13.6,5.7
		C402.3,175.1,406.5,177.3,411.8,178.5z M147,208.8c4.9-2.3,9.9-3.4,14-6.1c-1.5-1.1-12.1-4.5-14.4-4.9
		C146.2,201.2,146.2,204.6,147,208.8z M370.9,166c0-0.4,0-0.8,0-1.1c-2.3-0.8-4.5-1.9-6.8-2.7s-4.2-2.3-6.8-1.9
		c0,3.4-0.8,6.8,0.4,10.6C362.2,169.4,366.7,167.5,370.9,166z M244.3,247.8c6.1,3,11.4,4.9,14.4,5.3c0-3.4,0.8-6.8-0.4-10.6
		C253.4,244,249.3,245.9,244.3,247.8z M392.5,366c0.4-4.2,0.8-7.2,0-10.6c-4.5,0.8-11,3.4-13.6,5.7
		C383.4,362.6,387.6,364.5,392.5,366z M371.6,300.5c-3-1.9-5.3-2.7-7.6-3.4c-2.3-0.8-4.2-2.3-6.8-1.9c-0.8,4.5-0.8,7.2,0.4,10.6
		C362.2,304.6,366.7,302.7,371.6,300.5z M159.5,338.7c-3.4-2.3-9.9-4.5-13.3-4.9c-0.8,1.9-0.4,3.8-0.4,6.1c0,1.5-0.4,3,0.4,4.2
		C149.2,343.7,156.4,341,159.5,338.7z M218.2,165.6c-6.4-3.4-11.4-4.9-14.4-4.9c0,3.4-0.4,6.8,0.4,10.6
		C209.1,169.8,213.3,167.9,218.2,165.6z M395.9,100c-0.4,3.8-0.4,7.2,0,10.6c3.8-0.4,11.4-3.4,13.6-5.3
		C405,103.4,400.8,101.6,395.9,100z M258.4,152.7c-4.5,1.5-9.1,3.4-14,5.7c4.9,2.3,9.1,4.2,14,5.7
		C258.7,159.9,258.7,156.5,258.4,152.7z M122.7,188.3c-5.3-2.3-9.5-4.2-14.4-5.7c-0.4,3.8-0.8,7.2,0.4,11.4
		C113.2,192.1,117.4,190.2,122.7,188.3z M122,128.1c-4.2-2.3-8.7-4.2-13.3-5.7c-0.4,3.8-0.8,7.2,0,11
		C113.2,132.2,117.4,130.4,122,128.1z M314.1,143.2c-5.3-3-11-4.9-14.4-5.3c-0.4,3.4-0.8,6.8,0.4,10.2c0.8,0,1.1,0,1.9-0.4
		C305.7,146.6,309.5,145.1,314.1,143.2z M218.2,75.8c-4.9-2.3-9.5-4.2-14-5.3c-0.4,3.8-0.8,7.2,0,11.4
		C209.1,79.6,213.6,78.1,218.2,75.8z M313.3,382.7c-3-1.9-9.5-4.5-13.3-5.3c-0.8,3.4-0.8,6.8,0,10.2
		C303.8,387.2,310.6,384.6,313.3,382.7z M353.8,380.8c0.8-4.2,0.8-7.6-0.4-11c-4.5,1.9-9.1,3-13.6,5.7
		C345.1,377.8,349.3,379.3,353.8,380.8z M313.3,218.3c-3.4-2.3-10.6-4.9-13.6-4.9c0,3.4-0.4,6.8,0.4,9.9
		C303.4,222.8,309.9,220.1,313.3,218.3z M149.2,210.7c3.8,2.3,10.2,4.5,13.3,4.9c0.8-2.3,0.4-4.5,0.4-6.8c0-1.1,0-2.3-0.4-3.4
		C159.1,205.8,152.3,208.8,149.2,210.7z M148.5,90.6c4.9,2.7,11,4.9,14.4,5.3c0-3.4,0.4-6.8-0.4-10.6
		C157.6,86.8,153.4,88.7,148.5,90.6z M354.2,66.3c0.8-3.8,0.8-7.2,0-10.6c-2.7,0.4-4.9,1.5-7.2,2.3c-2.3,0.8-4.5,1.1-6.4,3
		C345.1,62.9,349.3,64.8,354.2,66.3z M258.4,392.9c-3.8,0.4-11,3.4-13.3,5.3c4.5,2.7,10.6,4.5,13.6,4.9
		C258.7,399.4,259.1,396,258.4,392.9z M258.4,48.1c-4.9,1.1-11,3.4-13.3,5.7c3.8,1.5,7.6,3,11,4.5c0.8,0.4,1.5,0.4,1.9,0.4
		C258.7,55.3,259.1,52.7,258.4,48.1z M353.8,115.6c-3.8,0.4-10.6,3.4-13.3,5.3c2.3,0.8,4.5,1.9,6.8,2.7s4.2,2.3,6.8,2.3
		C355,121.3,355,118.6,353.8,115.6z M334.5,274c-3.8,0.4-10.6,3.4-13.3,5.3c4.2,2.3,10.6,4.5,13.6,4.9
		C334.9,280.8,335.3,277.4,334.5,274z M148.1,360.3c5.3,1.9,9.5,4.2,14,5.3c1.1-3.8,1.1-7.6,0-10.6
		C157.6,356.6,153.4,358.1,148.1,360.3z M122,113.3c-3.4-2.3-9.9-4.5-13.6-4.9c-0.4,3.4-0.8,6.8,0.4,10.6c3.8-1.5,7.2-2.7,10.6-4.2
		C120.1,114.4,121.2,114.1,122,113.3z M341,360.3c3,1.9,9.9,4.9,13.6,5.3c0.4-3.4,0.8-6.8-0.4-10.6c-3,1.1-6.1,2.3-9.1,3.4
		C343.6,358.8,342.1,359.2,341,360.3z M395.5,351.2c4.9-1.9,9.5-3.4,14.4-6.1c-4.9-2.3-9.1-3.8-13.6-5.3c-0.8,0.8-0.8,1.1-0.8,1.5
		C395.5,344.4,395.5,347.5,395.5,351.2z M395.9,365.6c4.5-0.8,11.4-3.4,13.6-5.7c-4.5-1.9-8.7-3.8-13.3-4.9
		C395.1,358.4,395.5,361.9,395.9,365.6z M149.2,150.8c4.2,2.3,10.2,4.5,13.3,4.9c0.4-3.4,0.8-6.8,0-9.9
		C158.7,145.9,151.9,148.9,149.2,150.8z M226.2,225.5c4.2,1.9,8.3,4.2,13.3,5.3c0-3.8,0.4-7.2-0.4-11
		C234.9,221.3,230.3,223.2,226.2,225.5z M300,403.2c4.2-0.8,10.6-3.4,13.3-5.3c-4.2-2.7-10.6-4.9-13.3-4.5
		C299.7,396.3,299.3,399.7,300,403.2z M395.9,175.1c-0.8,3.8-0.8,7.2,0,10.6c4.9-1.1,11-3.8,13.3-5.7
		C405,178.5,400.8,176.6,395.9,175.1z M243.2,200.4c5.7-1.5,10.6-3.8,12.9-5.7c-4.5-1.5-8.3-4.2-12.9-4.9
		C242.4,192.9,242.4,196.7,243.2,200.4z M110.6,135.3c3.8,2.3,10.6,4.9,14,5.3c0-3.4,0.4-6.8-0.4-10.6
		C119.3,131.5,115.1,133.4,110.6,135.3z M242.8,185.7c4.2-0.8,11.7-4.2,13.3-6.1c-4.2-1.9-8.3-3.4-12.5-4.2
		c-0.8,0.8-0.8,1.1-0.8,1.9C242.8,180,242.8,182.6,242.8,185.7z M110.2,105.7c6.4,3.4,11,4.9,14,4.9c0-3.4,0.8-6.8-0.4-10.2
		C119.3,101.9,115.1,103.4,110.2,105.7z M398.2,338c4.2,2.3,10.2,4.5,13.3,4.9c0.8-3.8,0.8-6.8,0-9.9
		C408,333.4,401.2,336.1,398.2,338z M147,103.4c3.4-0.4,10.2-3,13.3-4.9c-4.2-2.3-10.2-4.5-13.6-4.9C146.2,96.6,146.2,100,147,103.4
		z M397.8,98.1c6.4,3.4,11,4.9,14,4.9c0.8-4.2,0.8-6.8-0.4-10.2C406.9,94,402.7,95.9,397.8,98.1z M397.8,352.8c5.3,3,11,4.9,14,4.9
		c0.4-3.4,0.8-6.4,0-10.2C406.9,349,402.3,350.5,397.8,352.8z M124.2,190.6c-3.8,0.8-10.2,3-12.9,4.9c3,2.3,9.9,4.9,13.3,4.9
		C124.6,197,125,193.6,124.2,190.6z M256.8,390.7c-5.7-3-11-4.9-14-4.9c-0.8,3.8-0.8,6.8,0.4,10.2
		C247.4,394.4,251.5,392.5,256.8,390.7z M206.4,173.2c4.2,1.9,8.3,4.2,13.3,5.3c0.8-3.8,0.8-7.2,0-11
		C215.2,169,211,170.9,206.4,173.2z M220.1,73.9c0-3,0-5.3,0-7.6c0-1.1,0.4-1.9-0.8-3c-2.3,0-4.5,1.5-6.8,2.3
		c-2.3,0.8-4.5,1.1-6.4,3.4C211,70.5,215.2,72.4,220.1,73.9z M398.2,82.6c0,0.4,0,0.8,0,0.8c4.2,1.5,8.3,3.4,13.3,4.9
		c0.8-3.8,0.8-7.2,0-11C406.9,79.6,402.3,81.1,398.2,82.6z M256.1,165.6c-3.4-2.3-10.2-4.5-13.3-4.9c-0.4,3.4-0.8,6.8,0.4,9.9
		C246.2,170.1,252.7,167.5,256.1,165.6z M242.4,55.3c-0.4,3.8-0.8,7.2,0.4,10.6c4.5-1.5,9.1-3,14-5.7
		C251.5,58.7,247.7,56.5,242.4,55.3z M147,137.9c-1.1,3.8-0.8,7.2,0.4,10.2c4.5-1.1,8.7-3,12.9-4.9
		C157.2,141.3,150.4,138.7,147,137.9z M299.7,43.6c2.7-0.4,4.5-1.5,6.4-2.3c2.3-0.8,4.2-1.5,6.4-2.7c-0.8-1.5-1.9-2.3-3-2.7
		c-3-1.1-6.1-3-9.9-3.4C299.7,36.4,299.7,39.8,299.7,43.6z M239.4,380.4c0.8-3.8,0.8-6.8,0-10.6c-4.5,1.5-9.1,3.4-14,5.7
		C230.3,377,234.5,379.3,239.4,380.4z M243.2,235.3c-0.8,4.9-0.8,7.6,0.4,10.2c4.9-1.1,10.2-3.4,12.5-5.3
		C251.9,238.3,247.7,236.8,243.2,235.3z M160.6,353.1c-4.9-3-10.6-4.9-13.6-4.9c-0.4,3-0.8,6.4,0.4,9.9
		C151.5,357.3,155.7,355,160.6,353.1z M167,218.3c4.9,1.9,8.7,3.4,12.5,4.9c0.4,0,1.1,0,1.5,0.4c0.8-3.8,0.8-6.8-0.4-10.6
		C176.5,214.5,172.3,216,167,218.3z M389.5,68.6c-4.2-1.9-8.3-3.8-12.9-4.9c-0.4,3.4-0.4,6.8,0,10.2
		C381.1,72.8,385.3,70.5,389.5,68.6z M314.1,278.9c-4.9-1.9-9.5-3.8-14-5.3c-0.8,3.4-0.8,6.8,0,10.6
		C305,282.7,309.1,281.2,314.1,278.9z M395.9,306.5c4.2-0.8,10.2-3,13.3-5.3c-4.2-1.9-8.3-3.8-12.9-4.9
		C395.1,299.7,395.5,302.7,395.9,306.5z M361,158c3.8,2.7,9.9,4.5,12.5,4.5c0.4-3,0.8-6.4-0.4-9.9C369,154.2,364.8,156.1,361,158z
		 M338.3,59.1c4.5-1.9,8.7-3,12.9-5.7c-4.9-1.5-8.7-3.8-13.3-4.5C337.5,52.3,337.5,55.3,338.3,59.1z M414.8,88.3
		c4.5-0.8,10.6-3,12.9-5.3c-4.2-1.5-8-3.4-12.5-4.5C414.1,81.9,414.5,84.9,414.8,88.3z M258.4,223.2c0-3.8,0.4-6.8-0.4-10.6
		c-4.2,1.9-8.7,3-13.3,5.7C249.6,220.1,253.8,222,258.4,223.2z M258.4,197.8c-2.7,0.4-4.9,1.1-6.8,1.9c-1.9,0.8-4.2,1.1-6.1,3
		c2.7,1.1,4.5,1.9,6.8,2.7c1.9,0.8,3.8,1.9,6.4,1.9C258.7,204.2,258.7,201.2,258.4,197.8z M245.1,233c4.5,2.3,8.7,3.8,13.3,5.3
		c0.4-3.4,0.8-6.8,0-10.6C253.8,229.2,249.6,230.4,245.1,233z M92,143.6c4.5,1.1,8.3,3.8,13.3,4.5c0.4-3.4,0.8-6.4-0.4-9.5
		C101.1,139.1,95.8,141,92,143.6z M169.7,353.5c5.7,3,9.5,4.2,12.5,4.2c0.4-3,0.4-6.1,0-9.1C179.2,348.6,172.7,351.2,169.7,353.5z
		 M319,51.5c4.5-1.5,8.7-3,13.3-5.3c-4.9-1.5-8.7-3.8-13.3-4.5C318.6,44.7,318.6,47.8,319,51.5z M395.5,81.1
		c5.7-1.1,10.6-3.4,12.9-5.3c-4.2-1.5-8-3.4-12.5-4.5C395.1,74.7,395.5,77.7,395.5,81.1z M258.7,182.3c-4.9,1.5-9.1,3-13.3,5.3
		c3,2.3,7.6,3.8,12.1,4.5C258.7,189.1,258.7,186,258.7,182.3z M434.2,86c-0.8,3.4-0.8,6.8,0,10.2c4.5-1.5,8.7-3,13.3-5.3
		C442.9,88.7,438.7,87.2,434.2,86z M369.8,61.8c-1.9-2.3-8.3-4.5-12.5-4.9c-0.8,3-0.8,6.1,0,9.9C361.8,64.8,366,63.3,369.8,61.8z
		 M408.4,331.2c-4.2-1.5-7.6-4.5-12.5-4.5c0,3-0.4,6.1,0.4,9.5C400.8,335,404.6,333.1,408.4,331.2z"/>
</g>
</svg>
